<?xml version="1.0" encoding="utf-8"?>
<!-- Generator: Adobe Illustrator 21.0.2, SVG Export Plug-In . SVG Version: 6.00 Build 0)  -->
<svg version="1.1" id="Ebene_1" xmlns="http://www.w3.org/2000/svg" xmlns:xlink="http://www.w3.org/1999/xlink" x="0px" y="0px"
	 viewBox="0 0 1309 754.5" style="enable-background:new 0 0 1309 754.5;" xml:space="preserve">
<style type="text/css">
	.st0{fill:#DC1716;}
	.st1{fill:#E6E6E6;}
	.st2{fill:#C7C6C5;}
	.st3{fill:none;stroke:#010202;stroke-width:5.2041;stroke-miterlimit:10;}
	.st4{fill:#FFFFFF;}
	.st5{fill:none;stroke:#C7C6C5;stroke-width:5.7;stroke-miterlimit:10;}
	.st6{fill:none;stroke:#010202;stroke-width:8.0126;stroke-miterlimit:10;}
	.st7{fill:none;stroke:#010202;stroke-width:12;stroke-miterlimit:10;}
	.st8{fill:none;stroke:#000000;stroke-width:6;stroke-miterlimit:10;}
</style>
<g id="Hintergrund">
</g>
<g id="Text">
</g>
<g id="Sack_x5F_klien">
</g>
<g id="_x33_.Boden">
</g>
<g id="Algen_x5F_doppelt">
	<g>
		<path class="st0" d="M663.7,529.4c0,0-7.5-9.6-0.5-23c7-13.4,0-24.1,0-24.1s-5.9-13.9,1.1-19.3c0,0-1.6,10.2,4.8,16.1
			c6.4,5.9,6.4,22.5,2.7,31.6c-3.7,9.1,9.6,15.5,9.6,15.5"/>
		<path class="st0" d="M679.4,534.4c0,0-7.5-16.9-0.5-40.3c7-23.4,0-42.2,0-42.2s-5.9-24.4,1.1-33.7c0,0-1.6,17.8,4.8,28.1
			c6.4,10.3,6.4,39.4,2.7,55.3c-3.7,15.9,9.6,27.2,9.6,27.2"/>
		<path class="st0" d="M697.2,531.9c0,0-7.5-13.4-0.5-32.1c7-18.7,0-33.6,0-33.6s-5.9-19.4,1.1-26.9c0,0-1.6,14.2,4.8,22.4
			c6.4,8.2,6.4,31.4,2.7,44.1c-3.8,12.7,9.6,21.7,9.6,21.7"/>
	</g>
	<g>
		<path class="st0" d="M719.9,539c0,0-7.5-9.6-0.5-23c7-13.4,0-24.1,0-24.1s-5.9-13.9,1.1-19.3c0,0-1.6,10.2,4.8,16.1
			c6.4,5.9,6.4,22.5,2.7,31.6c-3.7,9.1,9.6,15.5,9.6,15.5"/>
		<path class="st0" d="M735.6,544c0,0-7.5-16.9-0.5-40.3c7-23.4,0-42.2,0-42.2s-5.9-24.4,1.1-33.7c0,0-1.6,17.8,4.8,28.1
			c6.4,10.3,6.4,39.4,2.7,55.3c-3.7,15.9,9.6,27.2,9.6,27.2"/>
		<path class="st0" d="M753.4,541.5c0,0-7.5-13.4-0.5-32.1c7-18.7,0-33.6,0-33.6s-5.9-19.4,1.1-26.9c0,0-1.6,14.2,4.8,22.4
			c6.4,8.2,6.4,31.4,2.7,44.1c-3.8,12.7,9.6,21.7,9.6,21.7"/>
	</g>
</g>
<g id="Algen_x5F_klein">
	<g>
		<path class="st0" d="M48.6,499.5c0,0-14.2-18.3-1-43.8c13.2-25.4,0-45.8,0-45.8s-11.2-26.5,2-36.6c0,0-3.1,19.3,9.2,30.5
			c12.2,11.2,12.2,42.7,5.1,60c-7.1,17.3,18.3,29.5,18.3,29.5"/>
		<path class="st0" d="M78.5,509c0,0-14.2-32-1-76.6c13.2-44.5,0-80.1,0-80.1s-11.2-46.3,2-64.1c0,0-3.1,33.8,9.2,53.4
			c12.2,19.6,12.2,74.8,5.1,105.1C86.6,477,112,498.4,112,498.4"/>
		<path class="st0" d="M112.4,504.3c0,0-14.2-25.6-1-61s0-63.9,0-63.9s-11.2-36.9,2-51.1c0,0-3.1,27,9.2,42.6
			c12.2,15.6,12.2,59.6,5.1,83.8c-7.1,24.1,18.3,41.2,18.3,41.2"/>
	</g>
</g>
<polygon class="st1" points="179.5,442 193.7,437 191,451.9 188.3,466.8 176.7,456.9 165.2,447.1 "/>
<polyline class="st2" points="186.3,463 171.5,465.9 156.6,468.8 161.5,454.5 "/>
<polygon class="st1" points="196.2,483.2 168.6,492.5 175.8,475.8 183.4,459.3 201.3,462.7 219.5,466.2 "/>
<rect x="178.5" y="476.2" transform="matrix(0.8886 -0.4587 0.4587 0.8886 -208.3839 151.2063)" class="st1" width="57.2" height="56.8"/>
<polyline class="st1" points="186.6,546.5 195,534 203.5,521.4 210.1,535 "/>
<polyline class="st1" points="224.4,497.7 237,506.2 249.5,514.7 235.9,521.3 "/>
<path class="st3" d="M200.2,455c-5.3,12.4-11,6-11,6l-6.3,3.3c0,0-6.3,12.4-13.6,10"/>
<circle class="st0" cx="196.7" cy="525.8" r="1.6"/>
<circle class="st0" cx="203.1" cy="519" r="3.1"/>
<path class="st0" d="M202.6,529.2c-0.9-0.2-1.7,0.4-1.9,1.2c-0.2,0.9,0.4,1.7,1.2,1.9c0.9,0.2,1.7-0.4,1.9-1.2
	C204,530.3,203.5,529.4,202.6,529.2z"/>
<circle class="st4" cx="570.8" cy="396.7" r="7.7"/>
<circle class="st4" cx="557.8" cy="368.9" r="9"/>
<circle class="st4" cx="576.8" cy="338" r="6.1"/>
<path class="st5" d="M1309,496.3"/>
<path class="st5" d="M0,754.5"/>
<g id="_x32_.Boden_1_">
	<path class="st4" d="M0,754.5h1309V486.1c-1.4-0.1-71.5-34-565,29c-422.5,53.8-744-69-744-69V754.5z"/>
</g>
<g id="_x32_.Boden">
	<path class="st5" d="M1309,486.6c0,0-70.9-31.9-565,31c-422.5,53.8-744-71-744-71"/>
</g>
<g id="Sack">
	<g>
		<polygon class="st1" points="846.4,403.5 868.4,395.9 864,418.9 859.6,441.7 842,426.4 824.4,411.1 		"/>
		<polyline class="st2" points="856.7,435.9 833.8,440.1 810.9,444.4 818.6,422.4 		"/>
		<polygon class="st1" points="868.8,462.5 829.1,481.1 841.2,456.8 853.1,431.5 880.6,437 907.8,441.3 		"/>
		
			<rect x="844.1" y="456.5" transform="matrix(0.8923 -0.4515 0.4515 0.8923 -130.1533 454.885)" class="st1" width="88.1" height="87.5"/>
		<polyline class="st1" points="856,564.5 869.2,545.3 882.4,526.1 892.5,547 		"/>
		<polyline class="st1" points="914.9,489.9 934.1,503 953.3,516.2 932.4,526.3 		"/>
		<path class="st6" d="M879.6,427.3c-8.4,19.1-17.6,4.9-17.6,4.9l-10.6,4.4c0,0-8.4,23.7-19.6,20"/>
		<g>
			<circle class="st0" cx="871.8" cy="532.8" r="2.5"/>
			<path class="st0" d="M878.1,519.6c-1.5,2.1-1.1,5,1,6.6c2.1,1.6,5,1.1,6.6-1c1.6-2.1,1.1-5-1-6.6
				C882.6,517,879.7,517.5,878.1,519.6z"/>
			<path class="st0" d="M880.9,538.1c-1.3-0.3-2.7,0.5-3,1.9c-0.3,1.3,0.5,2.7,1.9,3c1.3,0.3,2.7-0.5,3-1.9
				C883.1,539.7,882.3,538.4,880.9,538.1z"/>
		</g>
	</g>
</g>
<path class="st5" d="M1309,754.5"/>
<g id="Algn_x5F_groß">
	<path class="st0" d="M1070,625c0,0-21-27-1.5-64.5c19.5-37.5,0-67.5,0-67.5s-16.5-39,3-54c0,0-4.5,28.5,13.5,45
		c18,16.5,18,63,7.5,88.5c-10.5,25.5,27,43.5,27,43.5"/>
	<path class="st0" d="M1114,639c0,0-21-47.2-1.5-112.9c19.5-65.6,0-118.1,0-118.1s-16.5-68.2,3-94.5c0,0-4.5,49.9,13.5,78.7
		c18,28.9,18,110.2,7.5,154.9c-10.5,44.6,27,76.1,27,76.1"/>
	<path class="st0" d="M1164,632c0,0-21-37.7-1.5-90c19.5-52.3,0-94.2,0-94.2s-16.5-54.4,3-75.3c0,0-4.5,39.8,13.5,62.8
		c18,23,18,87.9,7.5,123.5c-10.5,35.6,27,60.7,27,60.7"/>
</g>
<path class="st4" d="M1096.2,692.3l-42.6-67.8c0,0,123.5-23.2,150.4-31c26.9-7.8,34.3,56.8,34.3,56.8L1096.2,692.3z"/>
<g id="_x31_.Boden">
	<path class="st5" d="M0,597.6c0,0,113-109,582,4c414.1,99.7,727-44,727-44"/>
</g>
<g>
	<g id="Sack_x5F_dreieck">
		<polyline class="st2" points="454.1,474 429.2,449.4 404.4,424.9 437.9,415.6 		"/>
	</g>
	<polygon class="st1" points="483.1,434.6 511.3,455.1 479.3,469.3 447.4,483.5 451.2,448.7 454.9,414 	"/>
	<polygon class="st1" points="413.9,554.5 372.3,479.8 413.7,471.9 456.4,467.7 471.8,503.5 488.6,542.3 	"/>
	
		<rect x="333.9" y="502.7" transform="matrix(0.474 -0.8805 0.8805 0.474 -290.6737 650.8218)" class="st1" width="131" height="132"/>
	<polygon class="st1" points="290.3,584.2 328.4,583.9 363.3,583.6 347.6,615.2 	"/>
	<polyline class="st1" points="440.9,595.4 441.2,630.3 441.5,666.9 411.1,649.4 	"/>
	<circle class="st0" cx="346.1" cy="576.4" r="3.7"/>
	<path class="st0" d="M367.7,572.8c-3.9-0.1-7.1,2.9-7.3,6.8c-0.1,3.9,2.9,7.1,6.8,7.3c3.9,0.1,7.1-2.9,7.3-6.8
		C374.6,576.2,371.6,572.9,367.7,572.8z"/>
	<path class="st0" d="M347.3,592.1c-0.8-1.9-3-2.8-4.9-2.1c-1.9,0.8-2.8,2.9-2.1,4.9c0.8,1.9,3,2.8,4.9,2.1
		C347.2,596.2,348.1,594,347.3,592.1z"/>
	<path class="st7" d="M485.4,493c-30.6,6-25.8-12.9-25.8-12.9l-14.5-7.8c0,0-31.6,4.1-36.7-12.9"/>
</g>
<circle class="st8" cx="1479.4" cy="110.2" r="32.8"/>
<polygon points="1468.1,110.2 1468.1,92.4 1483.5,101.3 1498.9,110.2 1483.5,119.1 1468.1,127.9 "/>
</svg>
