<svg xmlns="http://www.w3.org/2000/svg" viewBox="0 0 142.47 168.57"><defs><style>.cls-1{fill:#e6e6e6;}.cls-2{fill:#c7c6c5;}.cls-3{fill:none;stroke:#010202;stroke-miterlimit:10;stroke-width:8.01px;}.cls-4{fill:#dc1716;}</style></defs><title>sack</title><g id="Ebene_2" data-name="Ebene 2"><g id="Ebene_1-2" data-name="Ebene 1"><g id="Sack"><polygon class="cls-1" points="35.56 7.59 57.56 0 53.16 22.92 48.74 45.8 31.16 30.49 13.56 15.18 35.56 7.59"/><polyline class="cls-2" points="45.85 39.91 22.92 44.18 0 48.45 7.72 26.5"/><polygon class="cls-1" points="57.87 66.53 18.23 85.12 30.28 60.9 42.21 35.58 69.74 41.09 96.88 45.32 57.87 66.53"/><rect class="cls-1" x="33.23" y="60.51" width="88.14" height="87.47" transform="translate(-38.74 46.13) rotate(-26.84)"/><polyline class="cls-1" points="45.14 168.57 58.33 149.34 71.52 130.11 81.58 151.09"/><polyline class="cls-1" points="104.01 93.9 123.24 107.09 142.47 120.28 121.49 130.35"/><path class="cls-3" d="M68.72,31.36C60.36,50.41,51.13,36.3,51.13,36.3L40.51,40.67s-8.38,23.69-19.6,20"/><circle class="cls-4" cx="60.96" cy="136.82" r="2.49"/><path class="cls-4" d="M67.24,123.6a4.7,4.7,0,1,0,6.58-1A4.7,4.7,0,0,0,67.24,123.6Z"/><path class="cls-4" d="M70.06,142.12a2.49,2.49,0,1,0,1.88,3A2.49,2.49,0,0,0,70.06,142.12Z"/></g></g></g></svg>