<svg xmlns="http://www.w3.org/2000/svg" viewBox="0 0 221.02 252.85"><defs><style>.cls-1{fill:#c7c6c5;}.cls-2{fill:#e6e6e6;}.cls-3{fill:#dc1716;}.cls-4{fill:none;stroke:#010202;stroke-miterlimit:10;stroke-width:12px;}</style></defs><title>sack--gross</title><g id="Ebene_2" data-name="Ebene 2"><g id="Ebene_1-2" data-name="Ebene 1"><g id="Sack_dreieck"><polyline class="cls-1" points="163.86 59.94 138.98 35.42 114.11 10.91 147.69 1.6"/></g><polygon class="cls-2" points="192.85 20.54 221.01 41.07 189.08 55.28 157.19 69.44 160.94 34.73 164.69 0 192.85 20.54"/><polygon class="cls-2" points="123.62 140.47 82.09 65.73 123.49 57.89 166.13 53.71 181.59 89.47 198.31 128.3 123.62 140.47"/><rect class="cls-2" x="43.66" y="88.69" width="131" height="132" transform="translate(-78.79 177.48) rotate(-61.71)"/><polygon class="cls-2" points="0 170.15 38.17 169.87 73.09 169.61 57.36 201.19 0 170.15"/><polyline class="cls-2" points="150.68 181.38 150.94 216.3 151.21 252.85 120.86 235.38"/><circle class="cls-3" cx="55.8" cy="162.39" r="3.73"/><path class="cls-3" d="M77.42,158.78A7,7,0,1,0,84.23,166,7,7,0,0,0,77.42,158.78Z"/><path class="cls-3" d="M57.08,178.1A3.73,3.73,0,1,0,55,183,3.74,3.74,0,0,0,57.08,178.1Z"/><path class="cls-4" d="M195.1,79c-30.58,6-25.8-12.88-25.8-12.88l-14.5-7.81s-31.64,4.07-36.72-12.87"/></g></g></svg>