<svg xmlns="http://www.w3.org/2000/svg" viewBox="0 0 1210 319.19"><defs><style>.cls-1{fill:#000100;}.cls-2{fill:#fff;}</style></defs><title>stadt</title><g id="Ebene_2" data-name="Ebene 2"><g id="Stadt"><path class="cls-1" d="M621.39,96.08s-22.74-11.19-36.26,20.3c0,0-11.71-27,25.29-30.21"/><path class="cls-1" d="M619.31,95.38s-25-21.81-47.83,1.24c0,0,6.13-30.06,41.84-14.75"/><path class="cls-1" d="M613.82,93.73s-6.67-32.52-38.78-28c0,0,23.1-20.18,42.21,13.64"/><path class="cls-1" d="M620.54,89.8s22.84-11,36.09,20.62c0,0,12-26.9-25-30.43"/><path class="cls-1" d="M622.63,89.12s25.22-21.59,47.82,1.65c0,0-5.87-30.11-41.71-15.12"/><path class="cls-1" d="M628.13,87.53s7-32.46,39-27.68c0,0-22.92-20.38-42.33,13.27"/><path class="cls-1" d="M625.56,72s-4.49-4.34,1.92-31.14c0,0-22.33,10-9.8,46.6"/><path class="cls-1" d="M606.86,78.54s32.22,8,26.42,39.89c0,0,21.1-22.26-11.91-42.73"/><polygon class="cls-1" points="626.74 73.13 618.52 72.44 611.32 81.04 612.35 88.92 615.97 92.93 622.63 97.12 630.3 92.83 631.71 78.12 626.74 73.13"/><path class="cls-1" d="M584,234.16l9.06,2c1.22-26.69,8.81-53.53,19.09-78.19,6.58-22.31,14.34-42.78,11.52-65.61l-7.55-1.69c-1.22,26.69-8.81,53.53-19.09,78.19-6.58,22.32-12.83,43.12-13,65.28Z"/><path class="cls-1" d="M992.54,145.08s22.74-11.19,36.26,20.3c0,0,11.71-27-25.29-30.21"/><path class="cls-1" d="M994.62,144.38s25-21.81,47.83,1.24c0,0-6.13-30.06-41.84-14.75"/><path class="cls-1" d="M1000.11,142.73s6.67-32.52,38.78-28c0,0-23.1-20.18-42.21,13.64"/><path class="cls-1" d="M993.39,138.8s-22.84-11-36.09,20.62c0,0-12-26.9,25-30.43"/><path class="cls-1" d="M991.3,138.12s-25.22-21.59-47.82,1.65c0,0,5.87-30.11,41.71-15.12"/><path class="cls-1" d="M985.79,136.53s-7-32.46-39-27.68c0,0,22.92-20.38,42.33,13.27"/><path class="cls-1" d="M988.37,121s4.48-4.34-1.92-31.14c0,0,22.33,10,9.8,46.6"/><path class="cls-1" d="M1007.07,127.54s-32.22,8-26.42,39.89c0,0-21.1-22.26,11.92-42.73"/><polygon class="cls-1" points="987.19 122.13 995.41 121.44 1002.61 130.04 1001.58 137.92 997.96 141.93 991.3 146.12 983.63 141.83 982.22 127.12 987.19 122.13"/><path class="cls-1" d="M1030,283.16l-9.06,2c-1.22-26.69-8.81-53.53-19.09-78.19-6.59-22.31-14.34-42.78-11.52-65.61l7.55-1.69c1.22,26.69,8.81,53.53,19.09,78.19,6.58,22.32,12.83,43.12,13,65.28Z"/><path class="cls-1" d="M329.39,155.08s-22.74-11.19-36.26,20.3c0,0-11.71-27,25.29-30.21"/><path class="cls-1" d="M327.31,154.38s-25-21.81-47.83,1.24c0,0,6.13-30.06,41.84-14.75"/><path class="cls-1" d="M321.82,152.73s-6.67-32.52-38.78-28c0,0,23.1-20.18,42.21,13.64"/><path class="cls-1" d="M328.54,148.8s22.84-11,36.09,20.62c0,0,12-26.9-25-30.43"/><path class="cls-1" d="M330.63,148.12s25.22-21.59,47.82,1.65c0,0-5.87-30.11-41.71-15.12"/><path class="cls-1" d="M336.13,146.53s7-32.46,39-27.68c0,0-22.92-20.38-42.33,13.27"/><path class="cls-1" d="M333.56,131s-4.49-4.34,1.92-31.14c0,0-22.33,10-9.8,46.6"/><path class="cls-1" d="M314.86,137.54s32.22,8,26.42,39.89c0,0,21.1-22.26-11.92-42.73"/><polygon class="cls-1" points="334.74 132.13 326.52 131.44 319.32 140.04 320.35 147.92 323.97 151.93 330.63 156.12 338.3 151.83 339.71 137.12 334.74 132.13"/><path class="cls-1" d="M292,317.16l9.06,2c1.22-26.69,8.81-77.53,19.09-102.19,6.58-22.31,14.34-42.78,11.52-65.61l-7.55-1.69c-1.22,26.69-8.81,53.53-19.09,78.19-6.58,22.32-12.83,67.12-13,89.28Z"/><rect class="cls-2" x="487" y="108" width="107" height="207"/><rect class="cls-2" x="80" y="108" width="227" height="207"/><rect class="cls-2" x="198" y="2" width="109" height="180"/><rect class="cls-2" x="406" y="108" width="62" height="207"/><rect class="cls-2" x="319" y="185" width="70" height="130"/><rect class="cls-2" y="217" width="62" height="101"/><rect class="cls-2" x="1103" y="106" width="107" height="208"/><rect class="cls-2" x="696" y="106" width="227" height="208"/><rect class="cls-2" x="815" width="108" height="180"/><rect class="cls-2" x="1022" y="106" width="62" height="208"/><rect class="cls-2" x="935" y="183" width="70" height="131"/><rect class="cls-2" x="616" y="215" width="62" height="101"/><rect class="cls-1" x="96.83" y="124" width="14" height="15"/><rect class="cls-1" x="96.83" y="156" width="14" height="15"/><rect class="cls-1" x="126.83" y="124" width="12" height="15"/><rect class="cls-1" x="126.83" y="156" width="12" height="15"/><rect class="cls-1" x="155.83" y="124" width="15" height="15"/><rect class="cls-1" x="155.83" y="156" width="15" height="15"/><rect class="cls-1" x="187.83" y="124" width="10" height="15"/><rect class="cls-1" x="187.83" y="156" width="10" height="15"/><rect class="cls-1" x="212.83" y="124" width="17" height="15"/><rect class="cls-1" x="212.83" y="156" width="17" height="15"/><rect class="cls-1" x="247.83" y="124" width="9" height="15"/><rect class="cls-1" x="247.83" y="156" width="9" height="15"/><rect class="cls-1" x="271.83" y="124" width="15" height="15"/><rect class="cls-1" x="271.83" y="156" width="15" height="15"/><rect class="cls-1" x="96.83" y="156" width="14" height="15"/><rect class="cls-1" x="96.83" y="191" width="14" height="14"/><rect class="cls-1" x="126.83" y="156" width="12" height="15"/><rect class="cls-1" x="126.83" y="191" width="12" height="14"/><rect class="cls-1" x="155.83" y="156" width="15" height="15"/><rect class="cls-1" x="155.83" y="191" width="15" height="14"/><rect class="cls-1" x="187.83" y="156" width="10" height="15"/><rect class="cls-1" x="187.83" y="191" width="10" height="14"/><rect class="cls-1" x="212.83" y="156" width="17" height="15"/><rect class="cls-1" x="212.83" y="191" width="17" height="14"/><rect class="cls-1" x="247.83" y="156" width="9" height="15"/><rect class="cls-1" x="247.83" y="191" width="9" height="14"/><rect class="cls-1" x="271.83" y="156" width="15" height="15"/><rect class="cls-1" x="271.83" y="191" width="15" height="14"/><rect class="cls-1" x="96.83" y="191" width="14" height="14"/><rect class="cls-1" x="96.83" y="221" width="14" height="14"/><rect class="cls-1" x="126.83" y="191" width="12" height="14"/><rect class="cls-1" x="126.83" y="221" width="12" height="14"/><rect class="cls-1" x="155.83" y="191" width="15" height="14"/><rect class="cls-1" x="155.83" y="221" width="15" height="14"/><rect class="cls-1" x="187.83" y="191" width="10" height="14"/><rect class="cls-1" x="187.83" y="221" width="10" height="14"/><rect class="cls-1" x="212.83" y="191" width="17" height="14"/><rect class="cls-1" x="212.83" y="221" width="17" height="14"/><rect class="cls-1" x="247.83" y="191" width="9" height="14"/><rect class="cls-1" x="247.83" y="221" width="9" height="14"/><rect class="cls-1" x="271.83" y="191" width="15" height="14"/><rect class="cls-1" x="271.83" y="221" width="15" height="14"/><rect class="cls-1" x="96.83" y="221" width="14" height="14"/><rect class="cls-1" x="96.83" y="255" width="14" height="14"/><rect class="cls-1" x="126.83" y="221" width="12" height="14"/><rect class="cls-1" x="126.83" y="255" width="12" height="14"/><rect class="cls-1" x="155.83" y="221" width="15" height="14"/><rect class="cls-1" x="155.83" y="255" width="15" height="14"/><rect class="cls-1" x="187.83" y="221" width="10" height="14"/><rect class="cls-1" x="187.83" y="255" width="10" height="14"/><rect class="cls-1" x="212.83" y="221" width="17" height="14"/><rect class="cls-1" x="212.83" y="255" width="17" height="14"/><rect class="cls-1" x="247.83" y="221" width="9" height="14"/><rect class="cls-1" x="247.83" y="255" width="9" height="14"/><rect class="cls-1" x="271.83" y="221" width="15" height="14"/><rect class="cls-1" x="271.83" y="255" width="15" height="14"/><rect class="cls-1" x="96.83" y="124" width="14" height="15"/><rect class="cls-1" x="126.83" y="124" width="12" height="15"/><rect class="cls-1" x="155.83" y="124" width="15" height="15"/><rect class="cls-1" x="187.83" y="124" width="10" height="15"/><rect class="cls-1" x="212.83" y="92" width="17" height="12"/><rect class="cls-1" x="212.83" y="124" width="17" height="15"/><rect class="cls-1" x="247.83" y="92" width="9" height="12"/><rect class="cls-1" x="247.83" y="124" width="9" height="15"/><rect class="cls-1" x="271.83" y="92" width="15" height="12"/><rect class="cls-1" x="271.83" y="124" width="15" height="15"/><rect class="cls-1" x="212.83" y="57" width="17" height="15"/><rect class="cls-1" x="247.83" y="57" width="9" height="15"/><rect class="cls-1" x="271.83" y="57" width="15" height="15"/><rect class="cls-1" x="212.83" y="22" width="17" height="15"/><rect class="cls-1" x="247.83" y="22" width="9" height="15"/><rect class="cls-1" x="271.83" y="22" width="15" height="15"/><rect class="cls-1" x="502.83" y="191" width="17" height="14"/><rect class="cls-1" x="502.83" y="221" width="17" height="14"/><rect class="cls-1" x="533.83" y="191" width="16" height="14"/><rect class="cls-1" x="533.83" y="221" width="16" height="14"/><rect class="cls-1" x="563.83" y="191" width="13" height="14"/><rect class="cls-1" x="563.83" y="221" width="13" height="14"/><rect class="cls-1" x="502.83" y="156" width="17" height="15"/><rect class="cls-1" x="533.83" y="156" width="16" height="15"/><rect class="cls-1" x="563.83" y="156" width="13" height="15"/><rect class="cls-1" x="502.83" y="124" width="17" height="15"/><rect class="cls-1" x="533.83" y="124" width="16" height="15"/><rect class="cls-1" x="563.83" y="124" width="13" height="15"/><rect class="cls-1" x="502.83" y="221" width="17" height="14"/><rect class="cls-1" x="502.83" y="255" width="17" height="14"/><rect class="cls-1" x="533.83" y="221" width="16" height="14"/><rect class="cls-1" x="533.83" y="255" width="16" height="14"/><rect class="cls-1" x="563.83" y="221" width="13" height="14"/><rect class="cls-1" x="563.83" y="255" width="13" height="14"/><rect class="cls-1" x="417.83" y="191" width="10" height="14"/><rect class="cls-1" x="442.83" y="191" width="15" height="14"/><rect class="cls-1" x="417.83" y="156" width="10" height="15"/><rect class="cls-1" x="442.83" y="156" width="15" height="15"/><rect class="cls-1" x="417.83" y="124" width="10" height="15"/><rect class="cls-1" x="442.83" y="124" width="15" height="15"/><rect class="cls-1" x="417.83" y="221" width="10" height="14"/><rect class="cls-1" x="417.83" y="255" width="10" height="14"/><rect class="cls-1" x="442.83" y="221" width="15" height="14"/><rect class="cls-1" x="442.83" y="255" width="15" height="14"/><rect class="cls-1" x="8.83" y="255" width="12" height="14"/><rect class="cls-1" x="37.83" y="255" width="16" height="14"/><rect class="cls-1" x="8.83" y="231" width="12" height="14"/><rect class="cls-1" x="37.83" y="231" width="16" height="14"/><rect class="cls-1" x="328.83" y="196.5" width="17" height="13.01"/><rect class="cls-1" x="363.83" y="196.5" width="15" height="13.01"/><rect class="cls-1" x="328.83" y="224.38" width="17" height="13.01"/><rect class="cls-1" x="328.83" y="255.99" width="17" height="13.01"/><rect class="cls-1" x="363.83" y="224.38" width="15" height="13.01"/><rect class="cls-1" x="363.83" y="255.99" width="15" height="13.01"/><rect class="cls-1" x="712.83" y="122" width="14" height="15"/><rect class="cls-1" x="712.83" y="154" width="14" height="15"/><rect class="cls-1" x="742.83" y="122" width="12" height="15"/><rect class="cls-1" x="742.83" y="154" width="12" height="15"/><rect class="cls-1" x="771.83" y="122" width="15" height="15"/><rect class="cls-1" x="771.83" y="154" width="15" height="15"/><rect class="cls-1" x="803.83" y="122" width="11" height="15"/><rect class="cls-1" x="803.83" y="154" width="11" height="15"/><rect class="cls-1" x="828.83" y="122" width="17" height="15"/><rect class="cls-1" x="828.83" y="154" width="17" height="15"/><rect class="cls-1" x="863.83" y="122" width="10" height="15"/><rect class="cls-1" x="863.83" y="154" width="10" height="15"/><rect class="cls-1" x="887.83" y="122" width="16" height="15"/><rect class="cls-1" x="887.83" y="154" width="16" height="15"/><rect class="cls-1" x="712.83" y="154" width="14" height="15"/><rect class="cls-1" x="712.83" y="189" width="14" height="15"/><rect class="cls-1" x="742.83" y="154" width="12" height="15"/><rect class="cls-1" x="742.83" y="189" width="12" height="15"/><rect class="cls-1" x="771.83" y="154" width="15" height="15"/><rect class="cls-1" x="771.83" y="189" width="15" height="15"/><rect class="cls-1" x="803.83" y="154" width="11" height="15"/><rect class="cls-1" x="803.83" y="189" width="11" height="15"/><rect class="cls-1" x="828.83" y="154" width="17" height="15"/><rect class="cls-1" x="828.83" y="189" width="17" height="15"/><rect class="cls-1" x="863.83" y="154" width="10" height="15"/><rect class="cls-1" x="863.83" y="189" width="10" height="15"/><rect class="cls-1" x="887.83" y="154" width="16" height="15"/><rect class="cls-1" x="887.83" y="189" width="16" height="15"/><rect class="cls-1" x="712.83" y="189" width="14" height="15"/><rect class="cls-1" x="712.83" y="219" width="14" height="15"/><rect class="cls-1" x="742.83" y="189" width="12" height="15"/><rect class="cls-1" x="742.83" y="219" width="12" height="15"/><rect class="cls-1" x="771.83" y="189" width="15" height="15"/><rect class="cls-1" x="771.83" y="219" width="15" height="15"/><rect class="cls-1" x="803.83" y="189" width="11" height="15"/><rect class="cls-1" x="803.83" y="219" width="11" height="15"/><rect class="cls-1" x="828.83" y="189" width="17" height="15"/><rect class="cls-1" x="828.83" y="219" width="17" height="15"/><rect class="cls-1" x="863.83" y="189" width="10" height="15"/><rect class="cls-1" x="863.83" y="219" width="10" height="15"/><rect class="cls-1" x="887.83" y="189" width="16" height="15"/><rect class="cls-1" x="887.83" y="219" width="16" height="15"/><rect class="cls-1" x="712.83" y="219" width="14" height="15"/><rect class="cls-1" x="712.83" y="253" width="14" height="15"/><rect class="cls-1" x="742.83" y="219" width="12" height="15"/><rect class="cls-1" x="742.83" y="253" width="12" height="15"/><rect class="cls-1" x="771.83" y="219" width="15" height="15"/><rect class="cls-1" x="771.83" y="253" width="15" height="15"/><rect class="cls-1" x="803.83" y="219" width="11" height="15"/><rect class="cls-1" x="803.83" y="253" width="11" height="15"/><rect class="cls-1" x="828.83" y="219" width="17" height="15"/><rect class="cls-1" x="828.83" y="253" width="17" height="15"/><rect class="cls-1" x="863.83" y="219" width="10" height="15"/><rect class="cls-1" x="863.83" y="253" width="10" height="15"/><rect class="cls-1" x="887.83" y="219" width="16" height="15"/><rect class="cls-1" x="887.83" y="253" width="16" height="15"/><rect class="cls-1" x="712.83" y="122" width="14" height="15"/><rect class="cls-1" x="742.83" y="122" width="12" height="15"/><rect class="cls-1" x="771.83" y="122" width="15" height="15"/><rect class="cls-1" x="803.83" y="122" width="11" height="15"/><rect class="cls-1" x="828.83" y="90" width="17" height="12"/><rect class="cls-1" x="828.83" y="122" width="17" height="15"/><rect class="cls-1" x="863.83" y="90" width="10" height="12"/><rect class="cls-1" x="863.83" y="122" width="10" height="15"/><rect class="cls-1" x="887.83" y="90" width="16" height="12"/><rect class="cls-1" x="887.83" y="122" width="16" height="15"/><rect class="cls-1" x="828.83" y="55" width="17" height="15"/><rect class="cls-1" x="863.83" y="55" width="10" height="15"/><rect class="cls-1" x="887.83" y="55" width="16" height="15"/><rect class="cls-1" x="828.83" y="21" width="17" height="14"/><rect class="cls-1" x="863.83" y="21" width="10" height="14"/><rect class="cls-1" x="887.83" y="21" width="16" height="14"/><rect class="cls-1" x="1118.83" y="189" width="17" height="15"/><rect class="cls-1" x="1118.83" y="219" width="17" height="15"/><rect class="cls-1" x="1150.83" y="189" width="15" height="15"/><rect class="cls-1" x="1150.83" y="219" width="15" height="15"/><rect class="cls-1" x="1179.83" y="189" width="13" height="15"/><rect class="cls-1" x="1179.83" y="219" width="13" height="15"/><rect class="cls-1" x="1118.83" y="154" width="17" height="15"/><rect class="cls-1" x="1150.83" y="154" width="15" height="15"/><rect class="cls-1" x="1179.83" y="154" width="13" height="15"/><rect class="cls-1" x="1118.83" y="122" width="17" height="15"/><rect class="cls-1" x="1150.83" y="122" width="15" height="15"/><rect class="cls-1" x="1179.83" y="122" width="13" height="15"/><rect class="cls-1" x="1118.83" y="219" width="17" height="15"/><rect class="cls-1" x="1118.83" y="253" width="17" height="15"/><rect class="cls-1" x="1150.83" y="219" width="15" height="15"/><rect class="cls-1" x="1150.83" y="253" width="15" height="15"/><rect class="cls-1" x="1179.83" y="219" width="13" height="15"/><rect class="cls-1" x="1179.83" y="253" width="13" height="15"/><rect class="cls-1" x="1033.83" y="189" width="11" height="15"/><rect class="cls-1" x="1058.83" y="189" width="15" height="15"/><rect class="cls-1" x="1033.83" y="154" width="11" height="15"/><rect class="cls-1" x="1058.83" y="154" width="15" height="15"/><rect class="cls-1" x="1033.83" y="122" width="11" height="15"/><rect class="cls-1" x="1058.83" y="122" width="15" height="15"/><rect class="cls-1" x="1033.83" y="219" width="11" height="15"/><rect class="cls-1" x="1033.83" y="253" width="11" height="15"/><rect class="cls-1" x="1058.83" y="219" width="15" height="15"/><rect class="cls-1" x="1058.83" y="253" width="15" height="15"/><rect class="cls-1" x="623.83" y="253" width="12" height="15"/><rect class="cls-1" x="655.83" y="253" width="15" height="15"/><rect class="cls-1" x="623.83" y="226" width="12" height="15"/><rect class="cls-1" x="655.83" y="226" width="15" height="15"/><rect class="cls-1" x="944.83" y="191" width="17" height="14.62"/><rect class="cls-1" x="979.83" y="191" width="15" height="14.62"/><rect class="cls-1" x="944.83" y="220.24" width="17" height="14.62"/><rect class="cls-1" x="944.83" y="253.38" width="17" height="14.62"/><rect class="cls-1" x="979.83" y="220.24" width="15" height="14.62"/><rect class="cls-1" x="979.83" y="253.38" width="15" height="14.62"/><line class="cls-1" x1="136.28" y1="145.16" x2="136.28" y2="151.9"/><rect class="cls-1" x="8.83" y="279" width="12" height="14"/><rect class="cls-1" x="37.83" y="279" width="16" height="14"/><rect class="cls-1" x="96.83" y="255" width="14" height="14"/><rect class="cls-1" x="96.83" y="289" width="14" height="14"/><rect class="cls-1" x="126.83" y="255" width="12" height="14"/><rect class="cls-1" x="126.83" y="289" width="12" height="14"/><rect class="cls-1" x="155.83" y="255" width="15" height="14"/><rect class="cls-1" x="155.83" y="289" width="15" height="14"/><rect class="cls-1" x="187.83" y="255" width="10" height="14"/><rect class="cls-1" x="187.83" y="289" width="10" height="14"/><rect class="cls-1" x="212.83" y="255" width="17" height="14"/><rect class="cls-1" x="212.83" y="289" width="17" height="14"/><rect class="cls-1" x="247.83" y="255" width="9" height="14"/><rect class="cls-1" x="247.83" y="289" width="9" height="14"/><rect class="cls-1" x="271.83" y="255" width="15" height="14"/><rect class="cls-1" x="271.83" y="289" width="15" height="14"/><rect class="cls-1" x="328.54" y="256.43" width="17" height="13.01"/><rect class="cls-1" x="328.54" y="288.03" width="17" height="13.01"/><rect class="cls-1" x="363.54" y="256.43" width="15" height="13.01"/><rect class="cls-1" x="363.54" y="288.03" width="15" height="13.01"/><rect class="cls-1" x="418" y="255.24" width="10" height="14"/><rect class="cls-1" x="418" y="289.24" width="10" height="14"/><rect class="cls-1" x="443" y="255.24" width="15" height="14"/><rect class="cls-1" x="443" y="289.24" width="15" height="14"/><rect class="cls-1" x="503.5" y="255.24" width="17" height="14"/><rect class="cls-1" x="503.5" y="289.24" width="17" height="14"/><rect class="cls-1" x="534.5" y="255.24" width="16" height="14"/><rect class="cls-1" x="534.5" y="289.24" width="16" height="14"/><rect class="cls-1" x="564.5" y="255.24" width="13" height="14"/><rect class="cls-1" x="564.5" y="289.24" width="13" height="14"/><rect class="cls-1" x="623.83" y="279.56" width="12" height="15"/><rect class="cls-1" x="655.83" y="279.56" width="15" height="15"/><rect class="cls-1" x="655.83" y="252.56" width="15" height="15"/><rect class="cls-1" x="712.83" y="253" width="14" height="15"/><rect class="cls-1" x="712.83" y="287" width="14" height="15"/><rect class="cls-1" x="742.83" y="253" width="12" height="15"/><rect class="cls-1" x="742.83" y="287" width="12" height="15"/><rect class="cls-1" x="771.83" y="253" width="15" height="15"/><rect class="cls-1" x="771.83" y="287" width="15" height="15"/><rect class="cls-1" x="803.83" y="253" width="11" height="15"/><rect class="cls-1" x="803.83" y="287" width="11" height="15"/><rect class="cls-1" x="828.83" y="253" width="17" height="15"/><rect class="cls-1" x="828.83" y="287" width="17" height="15"/><rect class="cls-1" x="863.83" y="253" width="10" height="15"/><rect class="cls-1" x="863.83" y="287" width="10" height="15"/><rect class="cls-1" x="887.83" y="253" width="16" height="15"/><rect class="cls-1" x="887.83" y="287" width="16" height="15"/><rect class="cls-1" x="944.83" y="252.38" width="17" height="14.62"/><rect class="cls-1" x="944.83" y="285.52" width="17" height="14.62"/><rect class="cls-1" x="979.83" y="252.38" width="15" height="14.62"/><rect class="cls-1" x="979.83" y="285.52" width="15" height="14.62"/><rect class="cls-1" x="1033.83" y="253" width="11" height="15"/><rect class="cls-1" x="1033.83" y="287" width="11" height="15"/><rect class="cls-1" x="1058.83" y="253" width="15" height="15"/><rect class="cls-1" x="1058.83" y="287" width="15" height="15"/><rect class="cls-1" x="1118.83" y="253" width="17" height="15"/><rect class="cls-1" x="1150.83" y="253" width="15" height="15"/><rect class="cls-1" x="1179.83" y="253" width="13" height="15"/><rect class="cls-1" x="1118.83" y="253" width="17" height="15"/><rect class="cls-1" x="1118.83" y="287" width="17" height="15"/><rect class="cls-1" x="1150.83" y="253" width="15" height="15"/><rect class="cls-1" x="1150.83" y="287" width="15" height="15"/><rect class="cls-1" x="1179.83" y="253" width="13" height="15"/><rect class="cls-1" x="1179.83" y="287" width="13" height="15"/></g></g></svg>