<svg xmlns="http://www.w3.org/2000/svg" viewBox="0 0 1312.17 466.22"><defs><style>.cls-1{fill:#dc1716;}.cls-2{fill:#e6e6e6;}.cls-3{fill:#c7c6c5;}.cls-4,.cls-5{fill:none;stroke-miterlimit:10;}.cls-4{stroke:#010202;stroke-width:5.2px;}.cls-5{stroke:#c7c6c5;stroke-width:5.7px;}.cls-6{fill:#fff;}</style></defs><title>unterwasser</title><g id="Ebene_2" data-name="Ebene 2"><g id="Ebene_1-2" data-name="Ebene 1"><g id="Algen_doppelt"><path class="cls-1" d="M665.65,241.15s-7.5-9.64-.54-23,0-24.1,0-24.1-5.89-13.93,1.07-19.28c0,0-1.6,10.18,4.82,16.07s6.42,22.49,2.68,31.6,9.64,15.53,9.64,15.53"/><path class="cls-1" d="M681.36,246.15s-7.5-16.87-.54-40.3,0-42.18,0-42.18-5.89-24.37,1.07-33.74c0,0-1.6,17.81,4.82,28.12s6.43,39.36,2.68,55.3S699,240.52,699,240.52"/><path class="cls-1" d="M699.22,243.65s-7.5-13.45-.53-32.13,0-33.62,0-33.62-5.89-19.43,1.07-26.9c0,0-1.61,14.2,4.82,22.42s6.43,31.38,2.68,44.08,9.64,21.67,9.64,21.67"/><path class="cls-1" d="M721.87,250.8s-7.5-9.64-.54-23,0-24.1,0-24.1-5.89-13.93,1.07-19.28c0,0-1.6,10.18,4.82,16.07s6.42,22.5,2.68,31.6,9.64,15.53,9.64,15.53"/><path class="cls-1" d="M737.58,255.79s-7.5-16.87-.53-40.3,0-42.17,0-42.17-5.89-24.37,1.07-33.74c0,0-1.6,17.81,4.82,28.12s6.43,39.36,2.68,55.3,9.64,27.18,9.64,27.18"/><path class="cls-1" d="M755.43,253.29s-7.5-13.45-.53-32.13,0-33.62,0-33.62S749,168.11,756,160.64c0,0-1.6,14.2,4.82,22.42s6.43,31.38,2.68,44.08,9.64,21.67,9.64,21.67"/></g><g id="Algen_klein"><path class="cls-1" d="M50.61,211.3s-14.24-18.31-1-43.75,0-45.79,0-45.79-11.19-26.46,2-36.63c0,0-3.05,19.33,9.16,30.52s12.21,42.74,5.09,60,18.31,29.51,18.31,29.51"/><path class="cls-1" d="M80.45,220.79s-14.24-32-1-76.56,0-80.13,0-80.13-11.19-46.3,2-64.1c0,0-3.05,33.83,9.16,53.42s12.21,74.79,5.09,105.05S114,210.11,114,210.11"/><path class="cls-1" d="M114.37,216s-14.24-25.55-1-61,0-63.88,0-63.88-11.19-36.91,2-51.1c0,0-3.05,27,9.16,42.59s12.21,59.62,5.09,83.75,18.31,41.17,18.31,41.17"/></g><polygon class="cls-2" points="181.47 153.79 195.72 148.74 192.98 163.65 190.24 178.54 178.73 168.68 167.22 158.84 181.47 153.79"/><polyline class="cls-3" points="188.32 174.72 173.46 177.62 158.59 180.51 163.49 166.22"/><polygon class="cls-2" points="198.2 194.91 170.61 204.23 177.77 187.56 185.39 171.06 203.3 174.49 221.48 177.97 198.2 194.91"/><rect class="cls-2" x="180.45" y="187.94" width="57.25" height="56.81" transform="translate(-75.95 120) rotate(-27.3)"/><polyline class="cls-2" points="188.54 258.29 197 245.73 205.47 233.17 212.12 246.75"/><polyline class="cls-2" points="226.38 209.49 238.94 217.95 251.5 226.42 237.92 233.06"/><path class="cls-4" d="M202.18,166.76c-5.33,12.42-11,6-11,6L184.86,176s-6.27,12.36-13.58,10"/><circle class="cls-1" cx="198.65" cy="237.59" r="1.62"/><circle class="cls-1" cx="205.12" cy="230.78" r="3.05"/><path class="cls-1" d="M204.58,241a1.62,1.62,0,1,0,1.24,1.93A1.62,1.62,0,0,0,204.58,241Z"/><path class="cls-5" d="M1311,208.08"/><g id="_2.Boden" data-name="2.Boden"><path class="cls-6" d="M2,466.22H1311V197.82c-1.42-.15-71.51-34-565,29-422.48,53.85-744-69-744-69Z"/></g><g id="_2.Boden-2" data-name="2.Boden"><path class="cls-5" d="M1311,198.31s-70.9-31.94-565,31c-422.48,53.85-744-71-744-71"/></g><g id="Algn_groß"><path class="cls-1" d="M1071.95,336.79s-21-27-1.5-64.5,0-67.5,0-67.5-16.5-39,3-54c0,0-4.5,28.5,13.5,45s18,63,7.5,88.5,27,43.5,27,43.5"/><path class="cls-1" d="M1115.95,350.79s-21-47.25-1.5-112.87,0-118.12,0-118.12-16.5-68.25,3-94.5c0,0-4.5,49.87,13.5,78.75s18,110.24,7.5,154.87,27,76.12,27,76.12"/><path class="cls-1" d="M1165.95,343.79s-21-37.67-1.5-90,0-94.17,0-94.17-16.5-54.41,3-75.33c0,0-4.5,39.76,13.5,62.78s18,87.89,7.5,123.47,27,60.69,27,60.69"/></g><path class="cls-6" d="M1098.19,404.08l-42.64-67.8s123.49-23.18,150.38-31,34.26,56.79,34.26,56.79Z"/><g id="_1.Boden" data-name="1.Boden"><path class="cls-5" d="M2,309.31s113-109,582,4c414.06,99.73,727-44,727-44"/></g></g></g></svg>