<?xml version="1.0" encoding="utf-8"?>
<!-- Generator: Adobe Illustrator 21.0.2, SVG Export Plug-In . SVG Version: 6.00 Build 0)  -->
<svg version="1.1" id="Ebene_1" xmlns="http://www.w3.org/2000/svg" xmlns:xlink="http://www.w3.org/1999/xlink" x="0px" y="0px"
	 viewBox="0 0 1340.6 125.8" style="enable-background:new 0 0 1340.6 125.8;" xml:space="preserve">
<style type="text/css">
	.st0{fill:#E09098;}
	.st1{fill:#FFFFFF;}
</style>
<title>welle</title>
<g id="Ebene_2">
	<g id="Welle_1">
		<g>
			<path class="st0" d="M1335.8,3.3c-23.8,0-23.7,15.3-47.5,15.3S1264.6,3,1240.8,3s-23.8,15.5-47.5,15.5s-23.8-15.6-47.5-15.6
				s-23.8,15.5-47.6,15.5s-23.8-15.6-47.6-15.6s-23.8,15.6-47.6,15.6S979.3,2.9,955.5,2.9S931.7,18.4,908,18.4S884.2,2.9,860.4,2.9
				s-23.8,15.6-47.5,15.6S789.1,2.9,765.3,2.9s-23.8,15.6-47.5,15.6S694,2.9,670.2,2.9s-23.8,15.6-47.5,15.6S598.9,2.9,575.1,2.9
				s-23.8,15.6-47.5,15.6S503.8,2.9,480,2.9s-23.8,15.6-47.5,15.6S408.7,2.9,384.9,2.9s-23.8,15.6-47.5,15.6S313.6,2.9,289.9,2.9
				s-23.8,15.6-47.6,15.6S218.5,2.9,194.8,2.9S171,18.4,147.2,18.4S123.4,2.9,99.7,2.9S75,18.4,51.3,18.4S27.2,2.9,2.9,2.9v123
				h1334.8L1335.8,3.3z"/>
			<path class="st1" d="M1340.6,125.9H0V0h2.9C16,0,22.6,4.2,29,8.3c5.8,3.7,11.4,7.3,22.3,7.3c11,0,16.7-3.6,22.7-7.3
				C80.3,4.2,87,0,99.7,0c12.7,0,19.1,4.2,25.3,8.3c5.7,3.8,11.2,7.3,22.2,7.3c11,0,16.5-3.6,22.2-7.3C175.6,4.2,182,0,194.8,0
				c12.7,0,19.1,4.2,25.3,8.3c5.7,3.8,11.2,7.3,22.2,7.3s16.5-3.6,22.2-7.3c6.2-4.1,12.6-8.3,25.3-8.3s19.1,4.2,25.3,8.3
				c5.7,3.8,11.2,7.3,22.2,7.3c11,0,16.5-3.6,22.2-7.3c6.2-4.1,12.6-8.3,25.3-8.3c12.7,0,19.1,4.2,25.3,8.3
				c5.7,3.8,11.2,7.3,22.2,7.3c11,0,16.4-3.6,22.2-7.3C460.8,4.2,467.2,0,480,0c12.8,0,19.2,4.2,25.4,8.3c5.7,3.8,11.2,7.3,22.2,7.3
				c11,0,16.5-3.6,22.2-7.3C556,4.2,562.4,0,575.1,0c12.7,0,19.1,4.2,25.3,8.3c5.7,3.8,11.2,7.3,22.2,7.3c11,0,16.5-3.6,22.2-7.3
				c6.2-4.1,12.6-8.3,25.3-8.3c12.8,0,19.2,4.2,25.3,8.3c5.7,3.8,11.2,7.3,22.2,7.3c11,0,16.5-3.6,22.2-7.3
				c6.2-4.1,12.6-8.3,25.3-8.3c12.7,0,19.1,4.2,25.3,8.3c5.7,3.8,11.2,7.3,22.2,7.3c11,0,16.5-3.6,22.2-7.3
				c6.2-4.1,12.6-8.3,25.3-8.3c12.7,0,19.2,4.2,25.4,8.3c5.8,3.8,11.2,7.3,22.2,7.3c11,0,16.4-3.6,22.2-7.3
				c6.2-4.1,12.6-8.3,25.3-8.3c12.7,0,19.1,4.2,25.3,8.2c5.7,3.8,11.1,7.3,22.2,7.3c11.1,0,16.5-3.6,22.3-7.3
				c6.2-4.1,12.6-8.2,25.3-8.2c12.7,0,19.1,4.2,25.3,8.3c5.7,3.8,11.2,7.3,22.2,7.3c11,0,16.5-3.6,22.2-7.3
				c6.2-4.1,12.6-8.2,25.3-8.2c12.7,0,19.1,4.2,25.3,8.3c5.7,3.8,11.2,7.3,22.2,7.3c11,0,16.4-3.5,22.2-7.3c6.2-4,12.6-8.2,25.3-8.2
				c12.8,0,19.2,4.2,25.3,8.3c5.7,3.8,11.2,7.4,22.2,7.4c11,0,16.5-3.5,22.2-7.2c6.2-4,12.6-8.1,25.3-8.1h2.8L1340.6,125.9z
				 M5.7,125.9h1328.1L1333,6.3c-9.2,0.5-14.2,3.7-19.4,7.1c-6.2,4-12.6,8.1-25.3,8.1c-12.7,0-19.1-4.2-25.3-8.3
				c-5.7-3.8-11.2-7.4-22.2-7.4c-11,0-16.5,3.5-22.2,7.3c-6.2,4-12.6,8.2-25.3,8.2c-12.7,0-19.1-4.2-25.3-8.3
				c-5.7-3.8-11.2-7.3-22.2-7.3c-11,0-16.5,3.5-22.2,7.3c-6.2,4.1-12.6,8.2-25.3,8.2c-12.7,0-19.1-4.2-25.3-8.3
				c-5.7-3.8-11.2-7.3-22.2-7.3c-11,0-16.5,3.6-22.2,7.3c-6.2,4.1-12.6,8.3-25.4,8.3c-12.8,0-19.2-4.2-25.3-8.3
				c-5.7-3.8-11.1-7.3-22.2-7.3c-11,0-16.5,3.6-22.2,7.3c-6.2,4.1-12.6,8.2-25.3,8.2c-12.7,0-19.1-4.2-25.3-8.2
				c-5.8-3.8-11.2-7.3-22.3-7.3c-11,0-16.5,3.6-22.2,7.3c-6.2,4.1-12.6,8.3-25.3,8.3c-12.7,0-19.1-4.2-25.3-8.3
				c-5.7-3.8-11.2-7.3-22.2-7.3c-11,0-16.5,3.6-22.2,7.3c-6.2,4.1-12.6,8.3-25.3,8.3c-12.7,0-19.1-4.2-25.3-8.3
				c-5.7-3.8-11.2-7.3-22.2-7.3S653.7,9.3,648,13c-6.2,4.1-12.6,8.3-25.3,8.3c-12.7,0-19.1-4.2-25.3-8.3c-5.7-3.8-11.2-7.3-22.2-7.3
				s-16.5,3.6-22.2,7.3c-6.2,4.1-12.6,8.3-25.3,8.3c-12.7,0-19.1-4.2-25.3-8.2C496.5,9.3,491,5.7,480,5.7c-11,0-16.5,3.6-22.2,7.3
				c-6.2,4.1-12.6,8.2-25.3,8.2c-12.7,0-19.1-4.2-25.3-8.3c-5.7-3.8-11.2-7.3-22.2-7.3c-11,0-16.5,3.6-22.2,7.3
				c-6.2,4.1-12.6,8.3-25.3,8.3c-12.7,0-19.1-4.2-25.3-8.3c-5.7-3.8-11.2-7.3-22.2-7.3c-11,0-16.5,3.6-22.2,7.3
				c-6.2,4.1-12.6,8.3-25.3,8.3S223.2,17.1,217,13c-5.7-3.8-11.2-7.3-22.2-7.3c-11,0-16.5,3.6-22.2,7.3c-6.2,4.1-12.6,8.3-25.3,8.3
				s-19.1-4.2-25.3-8.3c-5.7-3.8-11.2-7.3-22.2-7.3C88.6,5.7,83,9.3,77,13.1c-6.4,4-13,8.2-25.7,8.2c-12.6,0-19.1-4.1-25.4-8.2
				C20.4,9.7,15.3,6.3,5.7,5.8V125.9z"/>
		</g>
	</g>
</g>
</svg>
