<svg xmlns="http://www.w3.org/2000/svg" viewBox="0 0 1340.56 191.82"><defs><style>.cls-1{fill:#e09098;stroke:#fff;stroke-miterlimit:10;stroke-width:5.72px;}</style></defs><title>welle_lang</title><g id="Ebene_2" data-name="Ebene 2"><g id="Welle_1"><path class="cls-1" d="M1335.79,3.35c-23.78,0-23.71,15.32-47.49,15.32S1264.56,3,1240.77,3,1217,18.49,1193.24,18.49s-23.77-15.6-47.54-15.6-23.77,15.55-47.55,15.55-23.77-15.58-47.55-15.58S1026.82,18.43,1003,18.43,979.27,2.86,955.5,2.86,931.73,18.43,908,18.43,884.18,2.86,860.41,2.86s-23.78,15.57-47.55,15.57S789.08,2.86,765.31,2.86s-23.77,15.57-47.55,15.57S694,2.86,670.21,2.86s-23.77,15.57-47.55,15.57S598.89,2.86,575.11,2.86s-23.77,15.57-47.55,15.57S503.8,2.86,480,2.86s-23.77,15.57-47.54,15.57S408.71,2.86,384.94,2.86,361.17,18.43,337.4,18.43,313.62,2.86,289.85,2.86,266.07,18.43,242.3,18.43,218.53,2.86,194.76,2.86,171,18.43,147.22,18.43,123.45,2.86,99.68,2.86,75,18.43,51.27,18.43,27.22,2.86,2.86,2.86V189H1337.68Z"/></g></g></svg>