<svg id="Ebene_1" data-name="Ebene 1" xmlns="http://www.w3.org/2000/svg" viewBox="0 0 202.5 282.5"><defs><style>.cls-1{fill:#fff;}.cls-2{fill:#1d1d1b;}.cls-3{isolation:isolate;}</style></defs><title>cover</title><rect class="cls-1" x="1" y="1" width="189.99" height="269.5"/><path class="cls-2" d="M190,2V269.5H2V2H190m2-2H0V271.5H192Z"/><g class="cls-3"><g class="cls-3"><path class="cls-2" d="M22.76,44.93v1.69a5.65,5.65,0,0,0,2.31.46c1.62,0,2.69-.73,2.69-2.09,0-1-.62-1.42-2-1.8l-2.26-.64c-1.46-.42-2.77-1.27-2.77-3.31,0-2.51,2.13-3.73,4.81-3.73a13.28,13.28,0,0,1,3.86.62v2.82H27.5V37.41a5.3,5.3,0,0,0-1.91-.31c-1.89,0-2.68.86-2.68,1.84s.82,1.49,2,1.78l2,.51c1.46.38,3.08,1.18,3.08,3.42,0,2.53-1.87,4-4.9,4a15.69,15.69,0,0,1-4.3-.67V44.93Z"/><path class="cls-2" d="M40.67,47h1.27l0-4.1H36.07L36,47H37.4v1.49H32.7V47H34L34,37.21H32.7V35.72h4.7v1.49H36.1l0,4.06H42l0-4.06H40.67V35.72h4.7v1.49H44.08L44,47h1.37v1.49h-4.7Z"/><path class="cls-2" d="M48,47h1.29l.07-9.76H48V35.72h4.7v1.49H51.45L51.37,47h1.37v1.49H48Z"/></g><g class="cls-3"><path class="cls-2" d="M58.58,47h1.31L60,37.21H57l-.07,1.86H55.1l.07-3.35H66.73l.07,3.35H65l-.07-1.86H62L61.93,47H63.4v1.49H58.58Z"/></g></g><g class="cls-3"><g class="cls-3"><path class="cls-2" d="M28.48,64.9h1.27l0-4.1H23.87l0,4.1H25.2v1.49h-4.7V64.9h1.27l.07-9.76H20.51V53.65h4.7v1.49H23.91l0,4.06h5.92l0-4.06H28.48V53.65h4.7v1.49H31.88l-.07,9.76h1.37v1.49h-4.7Z"/></g><g class="cls-3"><path class="cls-2" d="M35.21,64.9H36.3l4.62-11.25h2.26L47.46,64.9h1.13v1.49H43.93V64.9h1.17L44,61.73H39.52L38.34,64.9h1.31v1.49H35.21Zm7-8.37a7.56,7.56,0,0,1-.33-1.17h0a6.81,6.81,0,0,1-.35,1.17l-1.4,3.6h3.37Z"/><path class="cls-2" d="M50.59,64.9h1.29L52,55.14H50.59V53.65h4.81a5.26,5.26,0,0,1,3,.56,3.56,3.56,0,0,1,1.64,3.13,4,4,0,0,1-1.78,3.39,4.32,4.32,0,0,1-2.48.6H53.94l0,3.57h1.57v1.49H50.59Zm4.79-5.06a2.23,2.23,0,0,0,2.55-2.42,2.34,2.34,0,0,0-.71-1.73,3,3,0,0,0-2.11-.55H54l0,4.7Z"/><path class="cls-2" d="M62.45,64.9h1.29l.07-9.76H62.45V53.65h4.81a5.26,5.26,0,0,1,3,.56,3.56,3.56,0,0,1,1.64,3.13,4,4,0,0,1-1.78,3.39,4.32,4.32,0,0,1-2.48.6H65.8l0,3.57h1.57v1.49H62.45Zm4.79-5.06a2.23,2.23,0,0,0,2.55-2.42,2.34,2.34,0,0,0-.71-1.73A3,3,0,0,0,67,55.14H65.84l0,4.7Z"/><path class="cls-2" d="M74.45,64.9h1.27l.07-9.76H74.32V53.65h9L83.35,57H81.66l-.11-1.86h-3.7l0,3.93h3.64v1.6H77.81l0,4.22h3.88l.15-2.08h1.71l-.15,3.57H74.45Z"/><path class="cls-2" d="M86.26,64.9H87.5l.07-9.76H86V53.65h3.35l5.9,7.7c.38.51.93,1.35,1.27,1.91h0l-.07-8.12H95V53.65h4.44v1.49H98.24l-.07,11.25H96.51l-6.37-8.26a9.4,9.4,0,0,1-.89-1.35l0,0,.07,8.08h1.4v1.49H86.26Z"/></g><g class="cls-3"><path class="cls-2" d="M104.13,62.86v1.69a5.65,5.65,0,0,0,2.31.46c1.62,0,2.69-.73,2.69-2.09,0-1-.62-1.42-2-1.8l-2.26-.64c-1.46-.42-2.77-1.27-2.77-3.31,0-2.51,2.13-3.73,4.81-3.73a13.28,13.28,0,0,1,3.86.62v2.82h-1.93V55.34A5.3,5.3,0,0,0,107,55c-1.89,0-2.68.86-2.68,1.84s.82,1.49,2,1.78l2,.51c1.46.38,3.08,1.18,3.08,3.42,0,2.53-1.87,4-4.9,4a15.69,15.69,0,0,1-4.3-.67V62.86Z"/></g></g><rect class="cls-2" x="29.17" y="80.06" width="2.61" height="1.36"/><rect class="cls-2" x="24.5" y="80.06" width="2.61" height="1.36"/><rect class="cls-2" x="19.84" y="80.06" width="2.61" height="1.36"/><rect class="cls-2" x="43.22" y="80.06" width="2.61" height="1.36"/><rect class="cls-2" x="38.54" y="80.06" width="2.61" height="1.36"/><rect class="cls-2" x="33.88" y="80.06" width="2.61" height="1.36"/><rect class="cls-2" x="57.26" y="80.06" width="2.61" height="1.36"/><rect class="cls-2" x="52.59" y="80.06" width="2.61" height="1.36"/><rect class="cls-2" x="47.93" y="80.06" width="2.61" height="1.36"/><rect class="cls-2" x="71.31" y="80.06" width="2.61" height="1.36"/><rect class="cls-2" x="66.63" y="80.06" width="2.61" height="1.36"/><rect class="cls-2" x="61.97" y="80.06" width="2.61" height="1.36"/><rect class="cls-2" x="85.35" y="80.06" width="2.61" height="1.36"/><rect class="cls-2" x="80.68" y="80.06" width="2.61" height="1.36"/><rect class="cls-2" x="76.02" y="80.06" width="2.61" height="1.36"/><rect class="cls-2" x="99.4" y="80.06" width="2.61" height="1.36"/><rect class="cls-2" x="94.72" y="80.06" width="2.61" height="1.36"/><rect class="cls-2" x="90.06" y="80.06" width="2.61" height="1.36"/><rect class="cls-2" x="113.45" y="80.06" width="2.61" height="1.36"/><rect class="cls-2" x="108.77" y="80.06" width="2.61" height="1.36"/><rect class="cls-2" x="104.11" y="80.06" width="2.61" height="1.36"/><rect class="cls-2" x="127.49" y="80.06" width="2.61" height="1.36"/><rect class="cls-2" x="122.81" y="80.06" width="2.61" height="1.36"/><rect class="cls-2" x="118.15" y="80.06" width="2.61" height="1.36"/><rect class="cls-2" x="141.54" y="80.06" width="2.61" height="1.36"/><rect class="cls-2" x="136.86" y="80.06" width="2.61" height="1.36"/><rect class="cls-2" x="132.2" y="80.06" width="2.61" height="1.36"/><rect class="cls-2" x="155.58" y="80.06" width="2.61" height="1.36"/><rect class="cls-2" x="150.9" y="80.06" width="2.61" height="1.36"/><rect class="cls-2" x="146.24" y="80.06" width="2.61" height="1.36"/><rect class="cls-2" x="169.63" y="80.06" width="2.61" height="1.36"/><rect class="cls-2" x="164.95" y="80.06" width="2.61" height="1.36"/><rect class="cls-2" x="160.29" y="80.06" width="2.61" height="1.36"/><g class="cls-3"><g class="cls-3"><path class="cls-2" d="M20.4,87.11H20V86.8h2.38v.82H22v-.5H20.83v1.24h1.11v.32H20.82V90H22l0-.55h.37l0,.87H20V90h.38Z"/><path class="cls-2" d="M23.3,88h-.47v-.32h.89l0,2.28h.41v.32H22.86V90h.41Zm.16-1.63a.31.31,0,1,1-.31.31A.31.31,0,0,1,23.45,86.41Z"/><path class="cls-2" d="M26.29,90h.33c0-.4,0-.83,0-1.24,0-.25,0-.76-.59-.76-.37,0-.77.22-.77.93V90h.38v.32H24.53V90h.33l0-2h-.42v-.32h.83a2.78,2.78,0,0,1,0,.31l0,.26h0a1,1,0,0,1,.92-.63c.71,0,.89.48.89,1s0,1,0,1.36h.38v.32H26.29Z"/><path class="cls-2" d="M29.65,87.11h-.4V86.8h1.23a1.59,1.59,0,0,1,.73.11A.83.83,0,0,1,31,88.46h0a.86.86,0,0,1,.92.87c0,.75-.62,1-1.25,1H29.25V90h.38ZM30.07,90h.33c.43,0,1,0,1-.66s-.51-.67-.93-.67h-.42Zm0-1.65h.25c.44,0,.9-.1.9-.63s-.48-.6-.71-.6h-.43Z"/><path class="cls-2" d="M32.35,87.72h.83c0,.47,0,.94,0,1.54,0,.38.07.78.57.78.75,0,.77-.82.77-1.19V88h-.41v-.32h.83l0,2.28h.36v.32h-.77a2.78,2.78,0,0,1,0-.31l0-.26h0a1,1,0,0,1-.88.63c-.75,0-.92-.47-.92-1.06s0-.88,0-1.28h-.42Z"/></g><g class="cls-3"><path class="cls-2" d="M37.8,90.25a2.61,2.61,0,0,1-.75.13A1.24,1.24,0,0,1,35.7,89,1.26,1.26,0,0,1,37,87.66a2.49,2.49,0,0,1,.84.13v.68h-.37v-.41A1.58,1.58,0,0,0,37,88c-.75,0-.9.59-.9,1a.94.94,0,0,0,1,1,2.27,2.27,0,0,0,.71-.15Z"/></g><g class="cls-3"><path class="cls-2" d="M38.6,86.77h-.5v-.32H39v1.36a3.84,3.84,0,0,1-.05.48h0a1,1,0,0,1,.92-.63c.71,0,.89.48.89,1s0,1,0,1.36h.38v.32H40V90h.33c0-.4,0-.83,0-1.24,0-.25,0-.76-.59-.76-.37,0-.77.22-.77.93L39,90h.38v.32H38.21V90h.37Z"/><path class="cls-2" d="M42.9,87.72h.83c0,.47,0,.94,0,1.54,0,.38.07.78.57.78.75,0,.77-.82.77-1.19V88h-.41v-.32h.83l0,2.28h.36v.32H45a2.78,2.78,0,0,1,0-.31l0-.26h0a1,1,0,0,1-.88.63c-.75,0-.92-.47-.92-1.06s0-.88,0-1.28H42.9Zm.93-1.21a.3.3,0,1,1-.3.3A.29.29,0,0,1,43.83,86.51Zm1.1,0a.3.3,0,1,1-.3.3A.29.29,0,0,1,44.92,86.51Z"/><path class="cls-2" d="M46.45,86.77H46v-.32h.86v1.36a3.75,3.75,0,0,1-.05.48h0a.93.93,0,0,1,.92-.63c.72,0,1,.56,1,1.25a1.35,1.35,0,0,1-1.4,1.47,2.37,2.37,0,0,1-1-.21Zm.39,3.15a1.52,1.52,0,0,0,.55.12c.68,0,1-.55,1-1.11S48,88,47.63,88s-.75.22-.77.93Z"/><path class="cls-2" d="M49.67,89.06a.89.89,0,0,0,1,1,1.76,1.76,0,0,0,.78-.2l0,.36a2.37,2.37,0,0,1-.86.18,1.36,1.36,0,0,1-.13-2.72c1,0,1.12.93,1.12,1.39Zm1.46-.32a.7.7,0,0,0-.69-.76.77.77,0,0,0-.77.76Z"/><path class="cls-2" d="M52.42,88H52v-.32h.86v.14c0,.15,0,.46-.06.67h0c.1-.38.24-.86.88-.86a1.08,1.08,0,0,1,.26,0l0,.37a.92.92,0,0,0-.28,0c-.53,0-.77.52-.78,1l0,1h.44v.32H52V90h.37Z"/><path class="cls-2" d="M55.56,86.8h1.22v.32H56.4v1.34l1.53-1.34h-.43V86.8h1.22v.32H58.4l-1.57,1.37L58.43,90h.31v.32H57.46V90h.41l-1.49-1.41V90h.4v.32H55.56V90h.38l0-2.89h-.4Z"/><path class="cls-2" d="M59.52,86.77H59v-.32h.92l0,3.55h.41v.32h-1.2V90h.37Z"/><path class="cls-2" d="M62,87.66A1.2,1.2,0,0,1,63.23,89,1.27,1.27,0,0,1,62,90.38a1.2,1.2,0,0,1-1.26-1.29A1.27,1.27,0,0,1,62,87.66ZM62,90c.55,0,.83-.45.83-1s-.27-1-.83-1-.83.45-.83,1S61.42,90,62,90Z"/><path class="cls-2" d="M64.07,88h-.45v-.32h.86v.09a3.75,3.75,0,0,1-.05.48h0a.93.93,0,0,1,.92-.63c.72,0,1,.56,1,1.25A1.35,1.35,0,0,1,65,90.38a1.75,1.75,0,0,1-.53-.09v1h.43v.32H63.68v-.32h.37Zm.39,1.88A1.52,1.52,0,0,0,65,90c.68,0,1-.55,1-1.11s-.32-.92-.73-.92-.75.22-.77.93Z"/><path class="cls-2" d="M67.44,88.49h-.37v-.62a2.44,2.44,0,0,1,.91-.2c.67,0,1,.25,1,.94,0,.23,0,.94,0,1.4h.37v.32H68.6v-.11a2.79,2.79,0,0,1,.05-.46h0a.84.84,0,0,1-.87.63.72.72,0,0,1-.81-.75c0-.73.78-.8,1.65-.8v-.19c0-.49-.19-.67-.59-.67a1.6,1.6,0,0,0-.58.11Zm1.17.64c-.61,0-1.23,0-1.23.49a.44.44,0,0,0,.49.45C68.15,90.06,68.61,89.91,68.61,89.13Z"/><path class="cls-2" d="M70.14,88h-.45v-.32h.86v.09a3.75,3.75,0,0,1-.05.48h0a.93.93,0,0,1,.92-.63c.72,0,1,.56,1,1.25a1.35,1.35,0,0,1-1.4,1.47,1.75,1.75,0,0,1-.53-.09v1H71v.32H69.75v-.32h.37Zm.39,1.88a1.52,1.52,0,0,0,.55.12c.68,0,1-.55,1-1.11s-.32-.92-.73-.92-.75.22-.77.93Z"/><path class="cls-2" d="M73.34,88h-.47v-.32h.89l0,2.28h.41v.32H72.91V90h.41Zm.16-1.63a.31.31,0,1,1-.31.31A.31.31,0,0,1,73.5,86.41Z"/><path class="cls-2" d="M75,89.06a.89.89,0,0,0,1,1,1.76,1.76,0,0,0,.78-.2l0,.36a2.37,2.37,0,0,1-.86.18,1.36,1.36,0,0,1-.13-2.72c1,0,1.12.93,1.12,1.39Zm1.46-.32a.7.7,0,0,0-.69-.76.77.77,0,0,0-.77.76Z"/><path class="cls-2" d="M77.72,88h-.44v-.32h.86v.14c0,.15,0,.46-.06.67h0c.1-.38.24-.86.88-.86a1.08,1.08,0,0,1,.26,0l0,.37a.92.92,0,0,0-.28,0c-.53,0-.77.52-.78,1l0,1h.44v.32H77.34V90h.37Z"/><path class="cls-2" d="M79.85,88H79.4v-.32h.86v.09a3.75,3.75,0,0,1-.05.48h0a.93.93,0,0,1,.92-.63c.72,0,1,.56,1,1.25a1.35,1.35,0,0,1-1.4,1.47,1.75,1.75,0,0,1-.53-.09v1h.43v.32H79.45v-.32h.37Zm.39,1.88a1.52,1.52,0,0,0,.55.12c.68,0,1-.55,1-1.11S81.43,88,81,88s-.75.22-.77.93Z"/></g><g class="cls-3"><path class="cls-2" d="M83.05,88h-.44v-.32h.86v.14c0,.15,0,.46-.06.67h0c.1-.38.24-.86.88-.86a1.08,1.08,0,0,1,.26,0l0,.37a.92.92,0,0,0-.28,0c-.53,0-.77.52-.78,1l0,1h.44v.32H82.67V90H83Z"/></g><g class="cls-3"><path class="cls-2" d="M85.27,88.49H84.9v-.62a2.44,2.44,0,0,1,.91-.2c.67,0,1,.25,1,.94,0,.23,0,.94,0,1.4h.37v.32h-.75v-.11a2.79,2.79,0,0,1,.05-.46h0a.84.84,0,0,1-.87.63.72.72,0,0,1-.81-.75c0-.73.78-.8,1.65-.8v-.19c0-.49-.19-.67-.59-.67a1.6,1.6,0,0,0-.58.11Zm0-2a.3.3,0,1,1-.3.3A.29.29,0,0,1,85.32,86.51Zm1.13,2.62c-.61,0-1.23,0-1.23.49a.44.44,0,0,0,.49.45C86,90.06,86.44,89.91,86.44,89.13Zm0-2.62a.3.3,0,1,1-.3.3A.29.29,0,0,1,86.41,86.51Z"/></g><g class="cls-3"><path class="cls-2" d="M90.16,88h-.23l-.35,0a.82.82,0,0,1,.25.63,1,1,0,0,1-1.1.93c-.11,0-.47.06-.47.25s.12.17.45.22l.69.12c.4.07.7.21.7.63,0,.6-.62.87-1.27.87s-1.24-.2-1.24-.71.32-.56.65-.64h0c-.21,0-.4-.16-.4-.4s.26-.34.47-.39h0a.83.83,0,0,1-.65-.88,1,1,0,0,1,1.08-.94,2,2,0,0,1,.45.06h1Zm-1.61,2.34c-.05,0-.57.15-.57.49s.61.46.87.46.84-.1.84-.51c0-.23-.21-.3-.44-.33Zm-.49-1.77a.65.65,0,0,0,.67.64.67.67,0,0,0,.72-.66.7.7,0,0,0-1.39,0Z"/><path class="cls-2" d="M90.28,87.72h.83c0,.47,0,.94,0,1.54,0,.38.07.78.57.78.76,0,.77-.82.77-1.19V88H92v-.32h.83l0,2.28h.36v.32h-.77a2.78,2.78,0,0,1,0-.31l0-.26h0a1,1,0,0,1-.88.63c-.75,0-.92-.47-.92-1.06s0-.88,0-1.28h-.42Z"/><path class="cls-2" d="M95.43,90h.33c0-.4,0-.83,0-1.24,0-.25,0-.76-.59-.76-.37,0-.77.22-.77.93V90h.38v.32H93.66V90H94l0-2h-.42v-.32h.83a2.78,2.78,0,0,1,0,.31l0,.26h0a1,1,0,0,1,.92-.63c.71,0,.89.48.89,1s0,1,0,1.36h.38v.32H95.43Z"/></g><g class="cls-3"><path class="cls-2" d="M99.59,88h-.23L99,88a.82.82,0,0,1,.25.63,1,1,0,0,1-1.1.93c-.11,0-.47.06-.47.25s.12.17.45.22l.69.12c.4.07.7.21.7.63,0,.6-.62.87-1.27.87S97,91.44,97,90.93s.32-.56.65-.64h0c-.21,0-.4-.16-.4-.4s.26-.34.47-.39h0a.83.83,0,0,1-.65-.88,1,1,0,0,1,1.08-.94,2,2,0,0,1,.45.06h1ZM98,90.38c-.05,0-.57.15-.57.49s.61.46.87.46.84-.1.84-.51c0-.23-.21-.3-.44-.33Zm-.49-1.77a.65.65,0,0,0,.67.64.67.67,0,0,0,.72-.66.7.7,0,0,0-1.39,0Z"/></g><g class="cls-3"><path class="cls-2" d="M100.28,89.06a.89.89,0,0,0,1,1,1.76,1.76,0,0,0,.78-.2v.36a2.38,2.38,0,0,1-.86.18,1.36,1.36,0,0,1-.13-2.72c1,0,1.12.93,1.12,1.39Zm1.46-.32A.7.7,0,0,0,101,88a.77.77,0,0,0-.77.76Z"/><path class="cls-2" d="M104.45,90h.33c0-.4,0-.83,0-1.24,0-.25,0-.76-.59-.76-.37,0-.77.22-.77.93V90h.38v.32h-1.13V90H103l0-2h-.42v-.32h.83a2.91,2.91,0,0,1,0,.31l0,.26h0a1,1,0,0,1,.92-.63c.71,0,.89.48.89,1s0,1,0,1.36h.38v.32h-1.13Z"/></g></g><g class="cls-3"><g class="cls-3"><path class="cls-2" d="M22.62,94.76h-.23l-.35,0a.82.82,0,0,1,.25.63,1,1,0,0,1-1.1.93c-.11,0-.47.06-.47.25s.12.17.45.22l.69.12c.4.07.7.21.7.63,0,.6-.62.87-1.27.87s-1.24-.2-1.24-.71.32-.56.65-.64h0c-.21,0-.4-.16-.4-.4s.26-.34.47-.39h0a.83.83,0,0,1-.65-.88,1,1,0,0,1,1.08-.94,2,2,0,0,1,.45.06h1ZM21,97.1c-.05,0-.57.15-.57.49s.61.46.87.46.84-.1.84-.51c0-.23-.21-.3-.44-.33Zm-.49-1.77a.65.65,0,0,0,.67.64.67.67,0,0,0,.72-.66.7.7,0,0,0-1.39,0Z"/></g><g class="cls-3"><path class="cls-2" d="M23.31,95.78a.89.89,0,0,0,1,1,1.76,1.76,0,0,0,.78-.2l0,.36a2.37,2.37,0,0,1-.86.18,1.36,1.36,0,0,1-.13-2.72c1,0,1.12.93,1.12,1.39Zm1.46-.32a.7.7,0,0,0-.69-.76.77.77,0,0,0-.77.76Z"/><path class="cls-2" d="M27.62,93.53a1.37,1.37,0,0,0-.42-.06c-.61,0-.68.33-.68.76v.21h.67v.32h-.66v2h.42V97H25.74v-.32h.35v-2h-.43v-.32h.43v-.25a.93.93,0,0,1,1-1.06,2.36,2.36,0,0,1,.49.06Z"/><path class="cls-2" d="M27.46,94.44h.83c0,.47,0,.94,0,1.54,0,.38.07.78.57.78.75,0,.77-.82.77-1.19v-.81h-.41v-.32H30l0,2.28h.36V97h-.77a2.78,2.78,0,0,1,0-.31l0-.26h0a1,1,0,0,1-.88.63c-.75,0-.92-.47-.92-1.06s0-.88,0-1.28h-.42Z"/><path class="cls-2" d="M32.61,96.72h.33c0-.4,0-.83,0-1.24,0-.25,0-.76-.59-.76-.37,0-.77.22-.77.93v1.07H32V97H30.85v-.32h.33l0-2h-.42v-.32h.83a2.78,2.78,0,0,1,0,.31l0,.26h0a1,1,0,0,1,.92-.63c.71,0,.89.48.89,1s0,1,0,1.36h.38V97H32.61Z"/><path class="cls-2" d="M36.53,96.72h.39V97h-.8a2.76,2.76,0,0,1,.05-.52h0a.88.88,0,0,1-.87.59c-.59,0-1.08-.42-1.08-1.25a1.32,1.32,0,0,1,1.38-1.46,1.15,1.15,0,0,1,.54.12v-1h-.52v-.32h.93Zm-.4-1.88a1,1,0,0,0-.51-.12c-.61,0-1,.4-1,1.13,0,.48.23.91.73.91s.76-.58.76-1.09Z"/><path class="cls-2" d="M37.78,95.78a.89.89,0,0,0,1,1,1.76,1.76,0,0,0,.78-.2l0,.36a2.37,2.37,0,0,1-.86.18,1.36,1.36,0,0,1-.13-2.72c1,0,1.12.93,1.12,1.39Zm1.46-.32a.7.7,0,0,0-.69-.76.77.77,0,0,0-.77.76Z"/><path class="cls-2" d="M42,96.72h.33c0-.4,0-.83,0-1.24,0-.25,0-.76-.59-.76-.37,0-.77.22-.77.93v1.07h.38V97H40.18v-.32h.33l0-2h-.42v-.32h.83a2.78,2.78,0,0,1,0,.31l0,.26h0a1,1,0,0,1,.92-.63c.71,0,.89.48.89,1s0,1,0,1.36h.38V97H42Z"/><path class="cls-2" d="M45.3,94.76h-.47v-.32h.89l0,2.28h.41V97H44.87v-.32h.41Zm.16-1.63a.31.31,0,1,1-.31.31A.31.31,0,0,1,45.46,93.13Z"/><path class="cls-2" d="M48.3,96.72h.33c0-.4,0-.83,0-1.24,0-.25,0-.76-.59-.76-.37,0-.77.22-.77.93v1.07h.38V97H46.53v-.32h.33l0-2h-.42v-.32h.83a2.78,2.78,0,0,1,0,.31l0,.26h0a1,1,0,0,1,.92-.63c.71,0,.89.48.89,1s0,1,0,1.36h.38V97H48.3Z"/><path class="cls-2" d="M51.64,93.83h-.4v-.32h1.59a1.58,1.58,0,0,1,1.77,1.71c0,1.24-.75,1.81-1.94,1.81H51.24v-.32h.38Zm.41,2.89h.54a1.53,1.53,0,0,0,1.14-.37,1.58,1.58,0,0,0,.39-1.12,1.42,1.42,0,0,0-.41-1.08,1.52,1.52,0,0,0-1.1-.32h-.55Z"/><path class="cls-2" d="M55.52,95.78a.89.89,0,0,0,1,1,1.76,1.76,0,0,0,.78-.2l0,.36a2.37,2.37,0,0,1-.86.18,1.36,1.36,0,0,1-.13-2.72c1,0,1.12.93,1.12,1.39ZM57,95.46a.7.7,0,0,0-.69-.76.77.77,0,0,0-.77.76Z"/><path class="cls-2" d="M57.8,94.44h.83c0,.47,0,.94,0,1.54,0,.38.07.78.57.78.76,0,.77-.82.77-1.19v-.81h-.41v-.32h.83l0,2.28h.36V97h-.77a2.78,2.78,0,0,1,0-.31l0-.26h0a1,1,0,0,1-.88.63c-.75,0-.92-.47-.92-1.06s0-.88,0-1.28H57.8Z"/><path class="cls-2" d="M61.1,94.44h.42l0-.63.41,0,0,.66h.82v.32h-.82c0,.43,0,.87,0,1.3s0,.69.4.69a1.41,1.41,0,0,0,.51-.11V97a1.48,1.48,0,0,1-.58.12c-.73,0-.73-.52-.73-.85s0-1.11,0-1.49H61.1Z"/><path class="cls-2" d="M65,95.16h-.37l0-.37a.89.89,0,0,0-.46-.1c-.26,0-.6.09-.6.4s.25.37.63.43c.66.11.94.31.94.74s-.31.83-1.06.83a2.59,2.59,0,0,1-.89-.16l0-.67h.37l0,.39a1.56,1.56,0,0,0,.59.12c.27,0,.6-.12.6-.43s-.27-.35-.55-.41c-.69-.15-1-.27-1-.78s.28-.78,1-.78a2.71,2.71,0,0,1,.82.16Z"/></g><g class="cls-3"><path class="cls-2" d="M67.74,97a2.61,2.61,0,0,1-.75.13,1.24,1.24,0,0,1-1.35-1.36,1.26,1.26,0,0,1,1.3-1.36,2.49,2.49,0,0,1,.84.13v.68H67.4v-.41a1.58,1.58,0,0,0-.43-.06c-.75,0-.9.59-.9,1a.94.94,0,0,0,1,1,2.27,2.27,0,0,0,.71-.15Z"/></g><g class="cls-3"><path class="cls-2" d="M68.54,93.49H68v-.32H69v1.36a3.84,3.84,0,0,1-.05.48h0a1,1,0,0,1,.92-.63c.71,0,.89.48.89,1s0,1,0,1.36h.38V97H70v-.32h.33c0-.4,0-.83,0-1.24,0-.25,0-.76-.59-.76-.37,0-.77.22-.77.93l0,1.07h.38V97H68.15v-.32h.37Z"/><path class="cls-2" d="M71.91,93.49h-.5v-.32h.92l0,3.55h.41V97h-1.2v-.32h.37Z"/><path class="cls-2" d="M73.65,95.21h-.37v-.62a2.44,2.44,0,0,1,.91-.2c.67,0,1,.25,1,.94,0,.23,0,.94,0,1.4h.37V97h-.75v-.11a2.79,2.79,0,0,1,.05-.46h0a.84.84,0,0,1-.87.63.72.72,0,0,1-.81-.75c0-.73.78-.8,1.65-.8v-.19c0-.49-.19-.67-.59-.67a1.6,1.6,0,0,0-.58.11Zm1.17.64c-.61,0-1.23,0-1.23.49a.44.44,0,0,0,.49.45C74.36,96.78,74.83,96.63,74.83,95.85Z"/><path class="cls-2" d="M77.8,96.72h.33c0-.4,0-.83,0-1.24,0-.25,0-.76-.59-.76-.37,0-.77.22-.77.93v1.07h.38V97H76v-.32h.33l0-2H76v-.32h.83a2.78,2.78,0,0,1,0,.31l0,.26h0a1,1,0,0,1,.92-.63c.71,0,.89.48.89,1s0,1,0,1.36h.38V97H77.8Z"/><path class="cls-2" d="M81.71,96.72h.39V97h-.8a2.76,2.76,0,0,1,.05-.52h0a.88.88,0,0,1-.87.59c-.59,0-1.08-.42-1.08-1.25a1.32,1.32,0,0,1,1.38-1.46,1.15,1.15,0,0,1,.54.12v-1H80.8v-.32h.93Zm-.4-1.88a1,1,0,0,0-.51-.12c-.61,0-1,.4-1,1.13,0,.48.23.91.73.91s.76-.58.76-1.09Z"/><path class="cls-2" d="M85.26,93.26a4.39,4.39,0,0,0-.75,2.47,4.58,4.58,0,0,0,.75,2.47L85,98.4a4.41,4.41,0,0,1,0-5.33Z"/><path class="cls-2" d="M85.52,94.5a1.1,1.1,0,0,1,1.12-1,1,1,0,0,1,1.07,1c0,.78-.83,1.56-1.16,1.85l-.46.41h0l.19,0h1.56V97H85.52v-.29l.25-.23A9.7,9.7,0,0,0,87,95.26a1.42,1.42,0,0,0,.32-.85.59.59,0,0,0-.64-.61c-.58,0-.67.45-.72.71Z"/><path class="cls-2" d="M90.71,95.22c0,.84-.28,1.88-1.23,1.88s-1.23-1-1.23-1.76.28-1.88,1.23-1.88S90.71,94.47,90.71,95.22Zm-2,.06c0,.51.11,1.48.8,1.48s.8-1,.8-1.48-.11-1.48-.8-1.48S88.68,94.76,88.68,95.28Z"/><path class="cls-2" d="M93.51,95.22c0,.84-.28,1.88-1.23,1.88s-1.23-1-1.23-1.76.28-1.88,1.23-1.88S93.51,94.47,93.51,95.22Zm-2,.06c0,.51.11,1.48.8,1.48s.8-1,.8-1.48-.11-1.48-.8-1.48S91.49,94.76,91.49,95.28Z"/><path class="cls-2" d="M94.75,95.24c-.44-.2-.73-.45-.73-.9s.37-.89,1.07-.89,1.08.24,1.08.82-.29.71-.74.93c.43.23.84.4.84,1s-.44.94-1.19.94-1.19-.36-1.19-.89S94.28,95.43,94.75,95.24Zm.32.17c-.32.16-.74.36-.74.78s.32.57.76.57c.59,0,.78-.34.78-.61s-.05-.34-.43-.55Zm0-.37.32-.18a.59.59,0,0,0,.34-.54c0-.39-.35-.52-.67-.52s-.65.17-.65.54a.64.64,0,0,0,.41.55Z"/><path class="cls-2" d="M96.86,95.47h1.3v.37h-1.3Z"/><path class="cls-2" d="M98.78,94.5a1.1,1.1,0,0,1,1.12-1,1,1,0,0,1,1.07,1c0,.78-.83,1.56-1.16,1.85l-.46.41h0l.19,0h1.56V97H98.78v-.29l.25-.23a9.7,9.7,0,0,0,1.21-1.26,1.42,1.42,0,0,0,.32-.85.59.59,0,0,0-.64-.61c-.58,0-.67.45-.72.71Z"/><path class="cls-2" d="M104,95.22c0,.84-.28,1.88-1.23,1.88s-1.23-1-1.23-1.76.28-1.88,1.23-1.88S104,94.47,104,95.22Zm-2,.06c0,.51.11,1.48.8,1.48s.79-1,.79-1.48-.11-1.48-.79-1.48S101.94,94.76,101.94,95.28Z"/><path class="cls-2" d="M105.61,93.52h.32l0,3.21h.72V97H104.8v-.32h.71l0-2.79h0a.35.35,0,0,1-.08.08l-.8.51-.19-.29Z"/><path class="cls-2" d="M108.42,93.52h.32l0,3.21h.73V97H107.6v-.32h.7l0-2.79h0l-.09.08-.8.51-.19-.29Z"/><path class="cls-2" d="M109.77,98.21a4.38,4.38,0,0,0,.75-2.47,4.58,4.58,0,0,0-.75-2.47l.29-.19a4.41,4.41,0,0,1,0,5.33Z"/></g></g><g class="cls-3"><g class="cls-3"><path class="cls-2" d="M23,107.88h-.39v-.55a2.51,2.51,0,0,0-.66-.09,1.48,1.48,0,0,0,0,3,2.59,2.59,0,0,0,.59-.08l0-.58h.39l0,.86a3.23,3.23,0,0,1-1,.15,1.66,1.66,0,0,1-1.88-1.8A1.75,1.75,0,0,1,22,106.9a3.24,3.24,0,0,1,1,.18Z"/><path class="cls-2" d="M23.86,106.93h-.5v-.32h.92V108a3.84,3.84,0,0,1-.05.48h0a1,1,0,0,1,.92-.63c.71,0,.89.48.89,1s0,1,0,1.36h.38v.32H25.27v-.32h.33c0-.4,0-.83,0-1.24,0-.25,0-.76-.59-.76-.37,0-.77.22-.77.93l0,1.07h.38v.32H23.46v-.32h.37Z"/><path class="cls-2" d="M27.22,108.2h-.44v-.32h.86V108c0,.15,0,.46-.06.67h0c.1-.38.24-.86.88-.86a1.08,1.08,0,0,1,.26,0l0,.37a.92.92,0,0,0-.28,0c-.53,0-.77.52-.78,1l0,1H28v.32H26.83v-.32h.37Z"/><path class="cls-2" d="M29.37,108.2h-.47v-.32h.89l0,2.28h.41v.32H28.93v-.32h.41Zm.16-1.63a.31.31,0,1,1-.31.31A.31.31,0,0,1,29.52,106.57Z"/><path class="cls-2" d="M32.45,108.6h-.37l0-.37a.89.89,0,0,0-.46-.1c-.26,0-.6.09-.6.4s.25.37.63.43c.66.11.94.31.94.74s-.31.83-1.06.83a2.59,2.59,0,0,1-.89-.16l0-.67H31l0,.39a1.56,1.56,0,0,0,.59.12c.27,0,.6-.12.6-.43s-.27-.35-.55-.41c-.69-.15-1-.27-1-.78s.28-.78,1-.78a2.71,2.71,0,0,1,.82.16Z"/><path class="cls-2" d="M33,107.88h.42l0-.63.41,0,0,.66h.82v.32h-.82c0,.43,0,.87,0,1.3s0,.69.4.69a1.41,1.41,0,0,0,.51-.11v.33a1.48,1.48,0,0,1-.58.12c-.73,0-.73-.52-.73-.85s0-1.11,0-1.49H33Z"/><path class="cls-2" d="M35.43,108.2H35v-.32h.89l0,2.28h.41v.32H35v-.32h.41Zm.16-1.63a.31.31,0,1,1-.31.31A.31.31,0,0,1,35.58,106.57Z"/><path class="cls-2" d="M38.43,110.16h.33c0-.4,0-.83,0-1.24,0-.25,0-.76-.59-.76-.37,0-.77.22-.77.93v1.07h.38v.32H36.66v-.32H37l0-2h-.42v-.32h.83a2.78,2.78,0,0,1,0,.31l0,.26h0a1,1,0,0,1,.92-.63c.71,0,.89.48.89,1s0,1,0,1.36h.38v.32H38.43Z"/><path class="cls-2" d="M40.54,108.65h-.37V108a2.44,2.44,0,0,1,.91-.2c.67,0,1,.25,1,.94,0,.23,0,.94,0,1.4h.37v.32H41.7v-.11a2.79,2.79,0,0,1,.05-.46h0a.84.84,0,0,1-.87.63.72.72,0,0,1-.81-.75c0-.73.78-.8,1.65-.8v-.19c0-.49-.19-.67-.59-.67a1.6,1.6,0,0,0-.58.11Zm1.17.64c-.61,0-1.23,0-1.23.49a.44.44,0,0,0,.49.45C41.25,110.22,41.71,110.07,41.71,109.29Z"/><path class="cls-2" d="M44.37,109.59h.41v.48a1.58,1.58,0,0,0,.69.13c.5,0,.84-.23.84-.65,0-.94-1.93-.38-1.93-1.65,0-.43.25-1,1.3-1a3,3,0,0,1,.95.17v.71h-.39v-.44a2,2,0,0,0-.59-.1c-.38,0-.81.15-.81.61,0,.9,1.93.34,1.93,1.64,0,.78-.67,1.06-1.34,1.06a3.47,3.47,0,0,1-1.06-.18Z"/><path class="cls-2" d="M47.22,107.88h.42l0-.63.41,0,0,.66h.82v.32H48c0,.43,0,.87,0,1.3s0,.69.4.69a1.41,1.41,0,0,0,.51-.11v.33a1.48,1.48,0,0,1-.58.12c-.73,0-.73-.52-.73-.85s0-1.11,0-1.49h-.41Z"/></g><g class="cls-3"><path class="cls-2" d="M49.66,109.22a.89.89,0,0,0,1,1,1.76,1.76,0,0,0,.78-.2v.36a2.38,2.38,0,0,1-.86.18,1.36,1.36,0,0,1-.13-2.72c1,0,1.12.93,1.12,1.39Zm1.46-.32a.7.7,0,0,0-.69-.76.76.76,0,0,0-.77.76Z"/></g><g class="cls-3"><path class="cls-2" d="M52.33,108.2h-.45v-.32h.86V108a3.75,3.75,0,0,1-.05.48h0a.93.93,0,0,1,.92-.63c.72,0,1,.56,1,1.25a1.35,1.35,0,0,1-1.4,1.47,1.75,1.75,0,0,1-.53-.09v1h.43v.32H51.94v-.32h.37Zm.39,1.88a1.52,1.52,0,0,0,.55.12c.68,0,1-.55,1-1.11s-.32-.92-.73-.92-.75.22-.77.93Z"/><path class="cls-2" d="M55.53,106.93H55v-.32h.92V108a3.84,3.84,0,0,1-.05.48h0a1,1,0,0,1,.92-.63c.71,0,.89.48.89,1s0,1,0,1.36h.38v.32H56.94v-.32h.33c0-.4,0-.83,0-1.24,0-.25,0-.76-.59-.76-.37,0-.77.22-.77.93l0,1.07h.38v.32H55.14v-.32h.37Z"/><path class="cls-2" d="M59.06,108.65h-.37V108a2.44,2.44,0,0,1,.91-.2c.67,0,1,.25,1,.94,0,.23,0,.94,0,1.4H61v.32h-.75v-.11a2.79,2.79,0,0,1,.05-.46h0a.84.84,0,0,1-.87.63.72.72,0,0,1-.81-.75c0-.73.78-.8,1.65-.8v-.19c0-.49-.19-.67-.59-.67a1.6,1.6,0,0,0-.58.11Zm1.17.64c-.61,0-1.23,0-1.23.49a.44.44,0,0,0,.49.45C59.77,110.22,60.23,110.07,60.23,109.29Z"/><path class="cls-2" d="M63.2,110.16h.33c0-.4,0-.83,0-1.24,0-.25,0-.76-.59-.76-.37,0-.77.22-.77.93v1.07h.38v.32H61.43v-.32h.33l0-2h-.42v-.32h.83a2.78,2.78,0,0,1,0,.31l0,.26h0a1,1,0,0,1,.92-.63c.71,0,.89.48.89,1s0,1,0,1.36h.38v.32H63.2Z"/></g></g><rect class="cls-2" x="29.17" y="120.86" width="2.61" height="1.36"/><rect class="cls-2" x="24.5" y="120.86" width="2.61" height="1.36"/><rect class="cls-2" x="19.84" y="120.86" width="2.61" height="1.36"/><rect class="cls-2" x="43.22" y="120.86" width="2.61" height="1.36"/><rect class="cls-2" x="38.54" y="120.86" width="2.61" height="1.36"/><rect class="cls-2" x="33.88" y="120.86" width="2.61" height="1.36"/><rect class="cls-2" x="57.26" y="120.86" width="2.61" height="1.36"/><rect class="cls-2" x="52.59" y="120.86" width="2.61" height="1.36"/><rect class="cls-2" x="47.93" y="120.86" width="2.61" height="1.36"/><rect class="cls-2" x="71.31" y="120.86" width="2.61" height="1.36"/><rect class="cls-2" x="66.63" y="120.86" width="2.61" height="1.36"/><rect class="cls-2" x="61.97" y="120.86" width="2.61" height="1.36"/><rect class="cls-2" x="85.35" y="120.86" width="2.61" height="1.36"/><rect class="cls-2" x="80.68" y="120.86" width="2.61" height="1.36"/><rect class="cls-2" x="76.02" y="120.86" width="2.61" height="1.36"/><rect class="cls-2" x="99.4" y="120.86" width="2.61" height="1.36"/><rect class="cls-2" x="94.72" y="120.86" width="2.61" height="1.36"/><rect class="cls-2" x="90.06" y="120.86" width="2.61" height="1.36"/><rect class="cls-2" x="113.45" y="120.86" width="2.61" height="1.36"/><rect class="cls-2" x="108.77" y="120.86" width="2.61" height="1.36"/><rect class="cls-2" x="104.11" y="120.86" width="2.61" height="1.36"/><rect class="cls-2" x="127.49" y="120.86" width="2.61" height="1.36"/><rect class="cls-2" x="122.81" y="120.86" width="2.61" height="1.36"/><rect class="cls-2" x="118.15" y="120.86" width="2.61" height="1.36"/><rect class="cls-2" x="141.54" y="120.86" width="2.61" height="1.36"/><rect class="cls-2" x="136.86" y="120.86" width="2.61" height="1.36"/><rect class="cls-2" x="132.2" y="120.86" width="2.61" height="1.36"/><rect class="cls-2" x="155.58" y="120.86" width="2.61" height="1.36"/><rect class="cls-2" x="150.9" y="120.86" width="2.61" height="1.36"/><rect class="cls-2" x="146.24" y="120.86" width="2.61" height="1.36"/><rect class="cls-2" x="169.63" y="120.86" width="2.61" height="1.36"/><rect class="cls-2" x="164.95" y="120.86" width="2.61" height="1.36"/><rect class="cls-2" x="160.29" y="120.86" width="2.61" height="1.36"/><polygon class="cls-2" points="198.25 278 5.25 278 5.25 276 196.25 276 196.25 5.5 198.25 5.5 198.25 278"/></svg>