<svg id="Ebene_1" data-name="Ebene 1" xmlns="http://www.w3.org/2000/svg" xmlns:xlink="http://www.w3.org/1999/xlink" viewBox="0 0 919.45 473.98"><defs><style>.cls-1{fill:#004e39;}.cls-2{fill:#126d53;}.cls-3{fill:none;}</style><symbol id="Tanne-8" data-name="Tanne" viewBox="0 0 17.72 32.09"><polygon class="cls-1" points="8.86 0 0 32.09 17.72 32.09 8.86 0"/></symbol></defs><title>Zeichenfläche 5 Kopie</title><polygon class="cls-2" points="836.11 371.98 819.86 430.86 852.37 430.86 836.11 371.98"/><polygon class="cls-2" points="872.87 378.49 856.62 437.36 889.12 437.36 872.87 378.49"/><use width="17.72" height="32.09" transform="translate(836.11 385.35) scale(1.83)" xlink:href="#Tanne-8"/><polygon class="cls-2" points="819.41 398.35 809.21 435.3 829.61 435.3 819.41 398.35"/><polygon class="cls-2" points="553.98 376.84 533.49 451.08 574.48 451.08 553.98 376.84"/><polygon class="cls-2" points="599.07 385.04 578.58 459.28 619.57 459.28 599.07 385.04"/><use width="17.72" height="32.09" transform="translate(553.98 393.69) scale(2.31)" xlink:href="#Tanne-8"/><polygon class="cls-2" points="532.92 410.09 520.06 456.68 545.78 456.68 532.92 410.09"/><rect class="cls-3" x="-1.55" y="-1.22" width="919.76" height="476.16"/></svg>