<svg id="Ebene_1" data-name="Ebene 1" xmlns="http://www.w3.org/2000/svg" xmlns:xlink="http://www.w3.org/1999/xlink" viewBox="0 0 76.18 102.31"><defs><style>.cls-1{fill:#e73a25;}.cls-2{fill:#fff;}.cls-3{fill:#a15b2a;}.cls-4{fill:none;stroke:#000;stroke-miterlimit:10;stroke-width:0.97px;}</style><symbol id="Heizluftballon-2" data-name="Heizluftballon" viewBox="0 0 76.18 102.31"><path class="cls-1" d="M9.52,31.78C9.52,11.66,22.31,0,38.09,0,17.05,0,0,11.66,0,31.78,0,47.8,10.82,68.28,25.86,76h3.06C17.64,68.28,9.52,47.8,9.52,31.78Z"/><path class="cls-1" d="M76.18,31.78C76.18,11.66,59.13,0,38.09,0,53.87,0,66.66,11.66,66.66,31.78c0,16-8.12,36.5-19.39,44.18h3.06C65.36,68.28,76.18,47.8,76.18,31.78Z"/><path class="cls-2" d="M57.14,31.78c0,16-5.41,36.5-12.93,44.18h3.06C58.54,68.28,66.66,47.8,66.66,31.78,66.66,11.66,53.87,0,38.09,0,48.61,0,57.14,11.66,57.14,31.78Z"/><path class="cls-2" d="M9.52,31.78c0,16,8.12,36.5,19.39,44.18H32C24.46,68.28,19,47.8,19,31.78,19,11.66,27.57,0,38.09,0,22.31,0,9.52,11.66,9.52,31.78Z"/><path class="cls-1" d="M19,31.78C19,47.8,24.46,68.28,32,76h3.67c-3-7.68-5.17-28.15-5.17-44.18C30.47,11.66,33.88,0,38.09,0,27.57,0,19,11.66,19,31.78Z"/><path class="cls-1" d="M45.71,31.78c0,16-2.16,36.5-5.17,44.18h3.67c7.52-7.68,12.93-28.15,12.93-44.18C57.14,11.66,48.61,0,38.09,0,42.3,0,45.71,11.66,45.71,31.78Z"/><path class="cls-2" d="M30.47,31.78c0,16,2.16,36.5,5.17,44.18h4.89c3-7.68,5.17-28.15,5.17-44.18C45.71,11.66,42.3,0,38.09,0S30.47,11.66,30.47,31.78Z"/><rect class="cls-3" x="26.66" y="88.36" width="22.85" height="13.95"/><line class="cls-4" x1="26.66" y1="75.96" x2="30.47" y2="88.36"/><line class="cls-4" x1="49.52" y1="75.96" x2="45.71" y2="88.36"/></symbol></defs><title>ballon</title><use width="76.18" height="102.31" xlink:href="#Heizluftballon-2"/></svg>