<svg id="Ebene_1" data-name="Ebene 1" xmlns="http://www.w3.org/2000/svg" xmlns:xlink="http://www.w3.org/1999/xlink" viewBox="0 0 120.39 61.23"><defs><style>.cls-1{fill:#e73a23;}</style><symbol id="Drachen-2" data-name="Drachen" viewBox="0 0 114.76 74.93"><polygon class="cls-1" points="62.47 52.29 79.07 0 114.76 0 114.76 35.69 62.47 52.29"/><polygon class="cls-1" points="50.6 51.77 54.24 48.13 55.58 53.11 56.91 58.08 51.94 56.75 46.96 55.42 50.6 51.77"/><polygon class="cls-1" points="61.59 62.76 57.95 66.41 56.62 61.43 55.28 56.45 60.26 57.79 65.23 59.12 61.59 62.76"/><polygon class="cls-1" points="38.07 57.08 42.74 54.91 42.28 60.04 41.82 65.17 37.61 62.21 33.39 59.25 38.07 57.08"/><polygon class="cls-1" points="44.61 71.17 39.94 73.34 40.4 68.21 40.85 63.08 45.07 66.04 49.28 69.01 44.61 71.17"/><polygon class="cls-1" points="26.18 58.74 31.26 59.6 27.98 63.57 24.7 67.54 22.9 62.71 21.11 57.88 26.18 58.74"/><polygon class="cls-1" points="23.59 74.07 18.51 73.21 21.8 69.24 25.08 65.27 26.87 70.1 28.67 74.93 23.59 74.07"/><polygon class="cls-1" points="12.06 54.26 16.56 56.76 12.14 59.41 7.72 62.05 7.64 56.9 7.55 51.75 12.06 54.26"/><polygon class="cls-1" points="4.5 67.84 0 65.33 4.42 62.69 8.84 60.04 8.92 65.19 9 70.34 4.5 67.84"/></symbol></defs><title>drache</title><use width="114.76" height="74.93" transform="translate(12.69 -15.36) rotate(11.7) scale(0.96)" xlink:href="#Drachen-2"/></svg>