<?xml version="1.0" encoding="utf-8"?>
<!-- Generator: Adobe Illustrator 21.1.0, SVG Export Plug-In . SVG Version: 6.00 Build 0)  -->
<svg version="1.1" id="Ebene_1" xmlns="http://www.w3.org/2000/svg" xmlns:xlink="http://www.w3.org/1999/xlink" x="0px" y="0px"
	 viewBox="0 0 561.6 280.1" style="enable-background:new 0 0 561.6 280.1;" xml:space="preserve">
<style type="text/css">
	.st0{fill:#CEDE8D;}
	.st1{fill:#E52B12;}
	.st2{fill:none;}
	.st3{fill:#FFFFFF;}
	.st4{font-family:'Helvetica-Bold';}
	.st5{font-size:14.0288px;}
</style>
<title>Zeichenfläche 11</title>
<g id="Grundriss">
	<path class="st0" d="M555.6,126.7c-5.9-3.4-11.8-9.1-9.8-18.1s-5.9-20.4-13.8-21.5s-15.7-1.1-19.7,2.3s-11.8,3.4-15.7,0
		s-15.7-6.8-25.6-6.8s-19.7-3.4-23.6-11.3s-19.7-7.6-23.6-15.8c-1.4-2.9-28-14.1-46-14.1s-32.7,16.4-32.7,16.4
		c-17.7,2.3-37.4-1.1-37.4-1.1s-21.5-3.4-49.1,4.5s-27.5,8-31.5,17s-28.1,2.8-31.1-1.6c-0.1-0.1-0.2-0.2-0.3-0.2
		c-3-5.8-11.8-16.6-37.2-23.4c-36-9.7-25.3-31-25.3-31s5.3-26.2-14.4-21.1C68.6,13.4,79.6,18,72.6,28.9c-4.6,7.2-16.7,4.6-27.4,2.6
		S24.4,45,23.9,52.8c-1.3,20.7-16.7,18.9-20,27.4C1,88.2,0,96.7,1,105.2c-1.2,3.1-1.4,6.8,0.1,11.4C9,140.3,14.9,151.6,28.6,155
		s15.7,6.8,17.7,11.3s11.8,6.8,17.7,7.9s13.8,4.5,13.8,9.1s2,13.6,15.7,20.4s35.4,0,35.4,0s13.8-7.9,25.6-3.4s11.8,19.2,11.8,19.2
		S152.5,232,154.5,241s11.8,12.5,11.8,12.5s7.9,3.4,2,9.1s-9.8,5.7-5.9,10.2s25.6,10.2,39.3,5.7s17.7-10.2,17.7-10.2
		s9.8-7.9,23.6-1.1s35.4-2.3,35.4-2.3s5.9-13.6,15.7-11.3s37.4,3.4,47.2,1.1c9.8-2.3,11.8-5.7,21.6-5.7s15.7-13.6,13.8-17
		s9.8-5.7,27.5-5.7s37.4-13.6,47.2-10.2s23.6-3.4,23.6-5.7s5.9-14.7,21.6-15.9c15.7-1.1,47.2-10.2,47.2-18.1s2-29.4,11.8-32.8
		S561.5,130.1,555.6,126.7z"/>
</g>
<g>
	<path class="st1" d="M545.4,38.2H427.8c-2.7,0-4.9-2.2-4.9-4.9V15.8c0-2.7,2.2-4.9,4.9-4.9h117.6c2.7,0,4.9,2.2,4.9,4.9v17.5
		C550.3,36,548.1,38.2,545.4,38.2z"/>
	<rect x="440.4" y="18.4" class="st2" width="92.4" height="42.4"/>
	<text transform="matrix(1 0 0 1 440.3965 28.5301)" class="st3 st4 st5">Coming soon</text>
</g>
</svg>
