<svg id="Ebene_1" data-name="Ebene 1" xmlns="http://www.w3.org/2000/svg" xmlns:xlink="http://www.w3.org/1999/xlink" viewBox="0 0 919.76 476.16"><defs><style>.cls-1{fill:url(#Unbenannter_Verlauf_11);}.cls-2{fill:#004e39;}.cls-3{fill:url(#Unbenannter_Verlauf_19);}.cls-4{fill:#9d9d9c;}.cls-13,.cls-5{fill:none;}.cls-5{stroke:#0c0a16;stroke-miterlimit:10;stroke-width:2.97px;}.cls-6{fill:#0d7c5c;}.cls-7{fill:#7cba44;}.cls-8{fill:url(#Unbenannter_Verlauf_11-2);}.cls-9{fill:#00a879;}.cls-10{fill:#fff;}.cls-11{fill:#1d1d1b;}.cls-12{fill:#683e1f;}</style><linearGradient id="Unbenannter_Verlauf_11" x1="16.68" y1="16.36" x2="16.27" y2="-17.76" gradientUnits="userSpaceOnUse"><stop offset="0" stop-color="#7cbb4b"/><stop offset="0.06" stop-color="#6eae46"/><stop offset="0.24" stop-color="#4c8e3b"/><stop offset="0.42" stop-color="#317533"/><stop offset="0.61" stop-color="#1e632d"/><stop offset="0.8" stop-color="#135829"/><stop offset="1" stop-color="#0f5528"/></linearGradient><linearGradient id="Unbenannter_Verlauf_19" x1="806.39" y1="353.2" x2="803.24" y2="93.06" gradientUnits="userSpaceOnUse"><stop offset="0" stop-color="#7cbb4b"/><stop offset="0.18" stop-color="#5ea544"/><stop offset="0.37" stop-color="#43923d"/><stop offset="0.57" stop-color="#308539"/><stop offset="0.78" stop-color="#257d36"/><stop offset="1" stop-color="#217a35"/></linearGradient><linearGradient id="Unbenannter_Verlauf_11-2" x1="661.01" y1="342.59" x2="661.42" y2="174.89" xlink:href="#Unbenannter_Verlauf_11"/><symbol id="Tanne-8" data-name="Tanne" viewBox="0 0 17.72 32.09"><polygon class="cls-2" points="8.86 0 0 32.09 17.72 32.09 8.86 0"/></symbol><symbol id="Berg-4" data-name="Berg" viewBox="0 0 33.37 16.68"><path class="cls-1" d="M0,16.69S0,0,16.69,0,33.37,16.69,33.37,16.69Z"/></symbol></defs><title>kuh</title><rect class="cls-3" x="691.66" y="229.84" width="228" height="126"/><rect class="cls-4" x="545.9" y="293.31" width="14.08" height="5.74"/><line class="cls-5" x1="528.26" y1="251.13" x2="528.26" y2="292.45"/><polyline class="cls-5" points="516.31 244.7 516.31 251.13 540.21 251.13 540.21 244.7"/><polygon class="cls-6" points="782.64 237.11 758.04 326.24 807.25 326.24 782.64 237.11"/><polygon class="cls-7" points="519.79 342.87 519.79 380.16 870.41 380.16 870.41 342.28 519.79 342.87"/><path class="cls-8" d="M520.8,343.1s0-112.72,140.21-112.72S801.22,343.1,801.22,343.1Z"/><polygon class="cls-9" points="602.39 256.8 579.31 340.41 625.47 340.41 602.39 256.8"/><polygon class="cls-2" points="653.17 266.03 630.09 349.64 676.25 349.64 653.17 266.03"/><use width="17.72" height="32.09" transform="translate(602.39 275.77) scale(2.61)" xlink:href="#Tanne-8"/><polygon class="cls-2" points="578.67 294.24 564.19 346.71 593.16 346.71 578.67 294.24"/><polygon class="cls-2" points="758.04 216.88 733.43 306.01 782.64 306.01 758.04 216.88"/><polygon class="cls-2" points="812.17 226.72 787.56 315.85 836.77 315.85 812.17 226.72"/><polygon class="cls-6" points="732.75 256.8 717.31 312.73 748.2 312.73 732.75 256.8"/><use width="33.37" height="16.69" transform="translate(790.43 296.16) scale(2.78)" xlink:href="#Berg-4"/><g id="Kuh-3" data-name="Kuh"><path class="cls-10" d="M788.71,355.68a10.81,10.81,0,0,0,.35-9.31c-2.24-4.83-4-6.13-4.13-9.31s-2.95-8.6-6-10.84c0,0-4.13,8.37-26.4,4.6,0,0-.71,8.37-2.48,11.91a12.17,12.17,0,0,0-1.41,6.37s1.06,6.37-1.41,7.31l-6.13.24s2.59-3.89,2.59-5.42-1.77-16.86-4-19.45c0,0-.75-1.45-7.58-5.46-4.09-2.4-1.48-5.86-4.15-12.61a155.66,155.66,0,0,0-8-17.42l9.9-3.89s2.71-2.36,10-1.18,8.84,3.89,23.93,2.71,21.57-2.95,27-.59,9,10,7.07,23.93S795,333.52,795,337.65s.59,15.09.59,15.09.35,2.71-1.53,3.42h-4.83"/><path class="cls-11" d="M775.31,292.68S768.63,299.36,772,306a16.78,16.78,0,0,0,10,8.35s5,1.67,6.68,8.35,8.35,1.67,8.35,1.67,3.55-17.4.21-24.08S791.88,290.25,775.31,292.68Z"/><path class="cls-11" d="M746.37,292.89l22.41.67c-5,15-.15,19.17,1.52,24.19s-5,6.68-5,6.68S754,326,755.71,321s-3.45-8-3.45-8-5-2.44-6.67-7.45.72-12.74.72-12.74"/><path class="cls-11" d="M790.83,294.56s12.31-5.34,12.76,7-1.19,25.07,1.63,26.4,4.15,2.37,3.56,4.75c0,0-4.75-1-5.19-4.6s-1.33-6.08-2.08-12.31,1-21.06-5.64-17.06"/></g><rect class="cls-12" x="641.48" y="337.88" width="227.23" height="6.67"/><rect class="cls-12" x="641.48" y="353" width="227.23" height="6.67"/><rect class="cls-12" x="655.42" y="331.28" width="4.5" height="36.68"/><rect class="cls-12" x="719.75" y="331.28" width="4.5" height="36.68"/><rect class="cls-12" x="784.02" y="331.28" width="4.5" height="36.68"/><rect class="cls-12" x="848.22" y="331.28" width="4.5" height="36.68"/><use width="33.37" height="16.69" transform="translate(487 321.85) scale(3.49)" xlink:href="#Berg-4"/><polygon class="cls-2" points="691.58 222.41 681.38 259.38 701.79 259.38 691.58 222.41"/><polygon class="cls-2" points="714.04 226.5 703.83 263.47 724.24 263.47 714.04 226.5"/><use width="17.72" height="32.09" transform="translate(691.58 230.81) scale(1.15)" xlink:href="#Tanne-8"/><polygon class="cls-2" points="681.1 238.97 674.69 262.17 687.5 262.17 681.1 238.97"/><rect class="cls-13" width="919.76" height="476.16"/></svg>