<svg id="Ebene_1" data-name="Ebene 1" xmlns="http://www.w3.org/2000/svg" viewBox="0 0 39.06 41.95"><defs><style>.cls-1{fill:#fff;}.cls-2{fill:#dadada;}</style></defs><title>kuhkopf</title><g id="Kuh-2" data-name="Kuh"><path class="cls-1" d="M39,14.84c-.31-2.14-8.13-3-8.13-3S30.43,3.07,23.54.68L19.8,0c-2.78,0-5.18,1.5-7,3.28.76.75,4.24,4.63,2.8,11.85C14,23.21,13.86,29.9,12.16,31.54c-1.33,1.28-3.65,1.53-4.6,1.58q-.23.86-.37,1.65c-.69,3.78.11,6.13,3.28,6.18l7.31.7c4.07,1.48,5.54-2.59,5.72-9.43S28.66,18,28.66,18C32.73,19.46,39.39,17.51,39,14.84Z"/><path d="M15.58,15.14C17,7.92,13.54,4,12.78,3.28A22.91,22.91,0,0,0,8.85,8.47s-7.6-2-8.65-.14C-1.12,10.69,4.41,14.89,8.74,15c0,0,2,8.69-.25,15.14q-.57,1.61-.93,3c1,0,3.28-.29,4.6-1.58C13.86,29.9,14,23.21,15.58,15.14Z"/><path d="M22.24,15.69c1.25-7.26,5.9-9.63,6.87-10.06a22.91,22.91,0,0,1,1.81,6.25s7.82.83,8.12,3c.38,2.68-6.29,4.61-10.35,3.12,0,0-5,7.38-5.2,14.22q0,1.7-.22,3.15c-.88-.39-3-1.45-3.73-3.12C18.54,30.08,20.84,23.8,22.24,15.69Z"/><path class="cls-2" d="M7.32,35.46a4.72,4.72,0,0,1,3.2-.53c1.62.41,2.27,1.71,3.68,1.73s2.1-1.19,3.87-1,4.22.2,4.66.78-.09,5.27-2.61,5.48-11-.89-11-.89S5.68,40.71,7.32,35.46Z"/></g></svg>