<svg id="Ebene_1" data-name="Ebene 1" xmlns="http://www.w3.org/2000/svg" xmlns:xlink="http://www.w3.org/1999/xlink" viewBox="0 0 919.45 473.98"><defs><style>.cls-1{fill:url(#Unbenannter_Verlauf_11);}.cls-2{fill:#fff;}.cls-3{fill:#1d1d1b;}.cls-4{fill:#dadada;}.cls-5{fill:#004e39;}.cls-6{fill:#7cba44;}.cls-7{fill:url(#Unbenannter_Verlauf_11-2);}.cls-8{fill:url(#Unbenannter_Verlauf_11-3);}.cls-9{fill:#41494c;}.cls-10{fill:url(#Unbenannter_Verlauf_7);}.cls-11{fill:url(#Unbenannter_Verlauf_11-4);}.cls-12{fill:#bedce9;}.cls-13{fill:#575756;}.cls-14{fill:#babab9;}.cls-15{fill:#9d9d9c;}.cls-16,.cls-23{fill:none;}.cls-16{stroke:#0c0a16;stroke-miterlimit:10;stroke-width:2.97px;}.cls-17{fill:#0d7c5c;}.cls-18{fill:url(#Unbenannter_Verlauf_11-5);}.cls-19{fill:#00a879;}.cls-20{fill:#683e1f;}.cls-21{fill:url(#Unbenannter_Verlauf_11-6);}.cls-22{fill:#f5edc9;}.cls-24{fill:#c6c6c6;}.cls-25{fill:#a7dbf3;}.cls-26{fill:#e73a23;}.cls-27{fill:#126d53;}.cls-28{fill:url(#Unbenannter_Verlauf_11-7);}.cls-29{fill:#706f6f;}</style><linearGradient id="Unbenannter_Verlauf_11" x1="16.68" y1="16.36" x2="16.27" y2="-17.76" gradientUnits="userSpaceOnUse"><stop offset="0" stop-color="#7cbb4b"/><stop offset="0.06" stop-color="#6eae46"/><stop offset="0.24" stop-color="#4c8e3b"/><stop offset="0.42" stop-color="#317533"/><stop offset="0.61" stop-color="#1e632d"/><stop offset="0.8" stop-color="#135829"/><stop offset="1" stop-color="#0f5528"/></linearGradient><linearGradient id="Unbenannter_Verlauf_11-2" x1="122.88" y1="351.09" x2="123.5" y2="99.43" xlink:href="#Unbenannter_Verlauf_11"/><linearGradient id="Unbenannter_Verlauf_11-3" x1="684.93" y1="351.48" x2="678.97" y2="-138.69" xlink:href="#Unbenannter_Verlauf_11"/><linearGradient id="Unbenannter_Verlauf_7" x1="363.51" y1="351.67" x2="358.42" y2="-67.63" gradientUnits="userSpaceOnUse"><stop offset="0" stop-color="#7cbb4b"/><stop offset="0.18" stop-color="#699b3d"/><stop offset="0.38" stop-color="#587f32"/><stop offset="0.59" stop-color="#4c6c2a"/><stop offset="0.79" stop-color="#456025"/><stop offset="1" stop-color="#435c23"/><stop offset="1" stop-color="#315a25"/><stop offset="1" stop-color="#1e5727"/><stop offset="1" stop-color="#135628"/><stop offset="1" stop-color="#0f5528"/></linearGradient><linearGradient id="Unbenannter_Verlauf_11-4" x1="267.09" y1="349.28" x2="264.58" y2="142.92" xlink:href="#Unbenannter_Verlauf_11"/><linearGradient id="Unbenannter_Verlauf_11-5" x1="661.46" y1="340.86" x2="661.87" y2="173.16" xlink:href="#Unbenannter_Verlauf_11"/><linearGradient id="Unbenannter_Verlauf_11-6" x1="302.95" y1="378.48" x2="301.39" y2="249.78" xlink:href="#Unbenannter_Verlauf_11"/><linearGradient id="Unbenannter_Verlauf_11-7" x1="184.77" y1="547.41" x2="180.64" y2="207.6" xlink:href="#Unbenannter_Verlauf_11"/><symbol id="Tanne-8" data-name="Tanne" viewBox="0 0 17.72 32.09"><polygon class="cls-5" points="8.86 0 0 32.09 17.72 32.09 8.86 0"/></symbol><symbol id="Berg-4" data-name="Berg" viewBox="0 0 33.37 16.68"><path class="cls-1" d="M0,16.69S0,0,16.69,0,33.37,16.69,33.37,16.69Z"/></symbol><symbol id="Kuh-3" data-name="Kuh" viewBox="0 0 37.95 26.55"><path class="cls-2" d="M30.59,26.21a3.94,3.94,0,0,0,.13-3.39c-.82-1.76-1.46-2.23-1.5-3.39A6.35,6.35,0,0,0,27,15.48s-1.5,3-9.61,1.67a16.83,16.83,0,0,1-.9,4.33A4.43,4.43,0,0,0,16,23.81s.39,2.32-.51,2.66l-2.23.09a6.48,6.48,0,0,0,.94-2c0-.56-.64-6.13-1.46-7.08,0,0-.27-.53-2.76-2-1.49-.87-.54-2.13-1.51-4.59a56.65,56.65,0,0,0-2.9-6.34l3.6-1.42s1-.86,3.65-.43,3.22,1.42,8.71,1,7.85-1.07,9.82-.21,3.26,3.65,2.57,8.71-1.07,5.92-1.07,7.42.21,5.49.21,5.49.13,1-.56,1.24H30.76"/><path class="cls-3" d="M25.72,3.28S23.28,5.71,24.5,8.14a6.11,6.11,0,0,0,3.65,3,4.19,4.19,0,0,1,2.43,3c.61,2.43,3,.61,3,.61s1.29-6.33.08-8.76S31.75,2.39,25.72,3.28Z"/><path class="cls-3" d="M15.18,3.35l8.16.24c-1.82,5.47-.06,7,.55,8.8s-1.82,2.43-1.82,2.43-4.09.59-3.48-1.23-1.26-2.91-1.26-2.91A5.21,5.21,0,0,1,14.9,8c-.61-1.82.26-4.64.26-4.64"/><path class="cls-2" d="M14.2,5.4c-.11-.78-3-1.07-3-1.07S11.07,1.12,8.57.25L7.21,0A3.7,3.7,0,0,0,4.65,1.2a4.65,4.65,0,0,1,1,4.31c-.59,2.94-.63,5.37-1.25,6a2.77,2.77,0,0,1-1.68.57q-.08.31-.13.6c-.25,1.38,0,2.23,1.19,2.25l2.66.26c1.48.54,2-.94,2.08-3.43a11.71,11.71,0,0,1,1.88-5.18C11.91,7.08,14.34,6.37,14.2,5.4Z"/><path d="M5.67,5.51a4.65,4.65,0,0,0-1-4.31A8.34,8.34,0,0,0,3.22,3.08S.45,2.34.07,3c-.48.86,1.53,2.39,3.11,2.41A11.71,11.71,0,0,1,3.09,11q-.21.58-.34,1.1a2.77,2.77,0,0,0,1.68-.57C5,10.88,5.08,8.45,5.67,5.51Z"/><path d="M8.09,5.71A4.65,4.65,0,0,1,10.59,2a8.34,8.34,0,0,1,.66,2.28s2.85.3,3,1.08c.14,1-2.29,1.68-3.77,1.14a11.71,11.71,0,0,0-1.89,5.17q0,.62-.08,1.15a2.77,2.77,0,0,1-1.36-1.14C6.75,10.95,7.58,8.66,8.09,5.71Z"/><path class="cls-4" d="M2.67,12.91a1.72,1.72,0,0,1,1.16-.19c.59.15.83.62,1.34.63s.76-.43,1.41-.37,1.54.07,1.7.29,0,1.92-1,2a34.63,34.63,0,0,1-4-.32S2.07,14.81,2.67,12.91Z"/><path class="cls-3" d="M31.36,4S35.84,2,36,6.5s-.43,9.12.59,9.61,1.51.86,1.3,1.73c0,0-1.73-.38-1.89-1.67s-.49-2.21-.76-4.48S35.63,4,33.2,5.47"/></symbol></defs><title>landschaft</title><rect class="cls-6" x="-8.32" y="346.51" width="41" height="80"/><rect class="cls-6" x="30.73" y="348.79" width="889.73" height="201.62"/><path class="cls-7" d="M-4.56,186.24a319,319,0,0,1,50-3.72c206.68,0,206.68,169.53,206.68,169.53H-6.33"/><path class="cls-8" d="M920.25,356.19H446.83s0-241.61,395.22-241.61c28,0,54,1.21,78.19,3.47"/><path class="cls-9" d="M923.88,175.54H783.48s-22.56,0-22.56,22.56-22.56,22.56-22.56,22.56H548.07V209.39H738.35s11.28-1.41,11.28-11.28,0-33.85,33.85-33.85h140.4Z"/><path class="cls-10" d="M30.73,354.11s0-203.46,332.81-203.46S696.35,354.11,696.35,354.11Z"/><path class="cls-9" d="M108.63,291.77c0-8.79,5.08-10.29,8.13-10.4H272.48l2.1-2.67c.67-.86,16.53-21.29,16.53-40.86,0-17.89-13.18-24.57-22-24.57H113.94q-9.65,6.92-17.85,14.17h173c1.34,0,8.05.5,8.05,10.4,0,11.28-7.89,24.11-11.63,29.56H116.69c-8.86,0-22,6.49-22,24.38v62.05h14Z"/><path class="cls-9" d="M507.35,192.46c8.08,0,19.74-5.41,21.73-19.93q-6.67-2.1-13.69-4c-.16,8.41-5.11,9.88-8.11,10H180.47a313,313,0,0,0-32.07,14Z"/><path class="cls-11" d="M110.6,350.57s0-100.22,156.51-100.22S423.61,350.57,423.61,350.57Z"/><path class="cls-12" d="M345.38,379.14s115.53-55.72,150.41-52.49,77.64,15.59,77.64,15.59L541.8,396Z"/><path class="cls-13" d="M531,349.69C531,330,489.22,314,437.63,314s-93.42,16-93.42,35.65H312.58v-44H560.71v44Z"/><rect class="cls-14" x="312.58" y="291.58" width="9.46" height="5.74"/><rect class="cls-14" x="331.22" y="291.58" width="14.72" height="5.74"/><rect class="cls-14" x="355.12" y="291.58" width="14.72" height="5.74"/><rect class="cls-14" x="379.03" y="291.58" width="14.72" height="5.74"/><rect class="cls-14" x="402.93" y="291.58" width="14.72" height="5.74"/><rect class="cls-14" x="426.83" y="291.58" width="14.72" height="5.74"/><rect class="cls-14" x="450.74" y="291.58" width="14.72" height="5.74"/><rect class="cls-14" x="474.64" y="291.58" width="14.72" height="5.74"/><rect class="cls-14" x="498.54" y="291.58" width="14.72" height="5.74"/><rect class="cls-14" x="522.45" y="291.58" width="14.72" height="5.74"/><rect class="cls-15" x="546.35" y="291.58" width="14.08" height="5.74"/><rect class="cls-9" x="312.58" y="297.33" width="247.85" height="8.38"/><line class="cls-16" x1="362.48" y1="249.4" x2="362.48" y2="290.72"/><polyline class="cls-16" points="350.53 242.97 350.53 249.4 374.44 249.4 374.44 242.97"/><polygon class="cls-17" points="783.09 235.38 758.49 324.51 807.7 324.51 783.09 235.38"/><polygon class="cls-6" points="520.25 341.14 520.25 378.43 870.86 378.43 870.86 340.55 520.25 341.14"/><path class="cls-18" d="M521.25,341.37s0-112.72,140.21-112.72S801.67,341.37,801.67,341.37Z"/><polygon class="cls-19" points="602.84 255.07 579.76 338.68 625.92 338.68 602.84 255.07"/><polygon class="cls-5" points="653.62 264.3 630.54 347.91 676.71 347.91 653.62 264.3"/><use width="17.72" height="32.09" transform="translate(602.84 274.05) scale(2.61)" xlink:href="#Tanne-8"/><polygon class="cls-5" points="579.12 292.51 564.64 344.98 593.61 344.98 579.12 292.51"/><polygon class="cls-5" points="758.49 215.15 733.88 304.28 783.09 304.28 758.49 215.15"/><polygon class="cls-5" points="812.62 224.99 788.01 314.12 837.22 314.12 812.62 224.99"/><polygon class="cls-17" points="733.21 255.07 717.76 311 748.65 311 733.21 255.07"/><use width="33.37" height="16.69" transform="translate(790.88 294.43) scale(2.78)" xlink:href="#Berg-4"/><g id="Kuh-2" data-name="Kuh"><path class="cls-2" d="M789.16,354a10.81,10.81,0,0,0,.35-9.31c-2.24-4.83-4-6.13-4.13-9.31s-2.95-8.6-6-10.84c0,0-4.13,8.37-26.4,4.6,0,0-.71,8.37-2.48,11.91a12.17,12.17,0,0,0-1.41,6.37s1.06,6.37-1.41,7.31l-6.13.24s2.59-3.89,2.59-5.42-1.77-16.86-4-19.45c0,0-.75-1.45-7.58-5.46-4.09-2.4-1.48-5.86-4.15-12.61a155.66,155.66,0,0,0-8-17.42l9.9-3.89s2.71-2.36,10-1.18,8.84,3.89,23.93,2.71,21.57-2.95,27-.59,9,10,7.07,23.93-2.95,16.27-2.95,20.39S796,351,796,351s.35,2.71-1.53,3.42h-4.83"/><path class="cls-3" d="M775.76,291s-6.68,6.68-3.34,13.37a16.78,16.78,0,0,0,10,8.35s5,1.67,6.68,8.35,8.35,1.67,8.35,1.67,3.55-17.4.21-24.08S792.33,288.52,775.76,291Z"/><path class="cls-3" d="M746.82,291.16l22.41.67c-5,15-.15,19.17,1.52,24.19s-5,6.68-5,6.68-11.25,1.62-9.58-3.39-3.45-8-3.45-8-5-2.44-6.67-7.45.72-12.74.72-12.74"/><path class="cls-3" d="M791.28,292.83s12.31-5.34,12.76,7-1.19,25.07,1.63,26.4,4.15,2.37,3.56,4.75c0,0-4.75-1-5.19-4.6S802.7,320.27,802,314,803,293,796.32,297"/></g><rect class="cls-20" x="641.93" y="336.15" width="227.23" height="6.67"/><rect class="cls-20" x="641.93" y="351.27" width="227.23" height="6.67"/><rect class="cls-20" x="655.87" y="329.55" width="4.5" height="36.68"/><rect class="cls-20" x="720.2" y="329.55" width="4.5" height="36.68"/><rect class="cls-20" x="784.47" y="329.55" width="4.5" height="36.68"/><rect class="cls-20" x="848.67" y="329.55" width="4.5" height="36.68"/><use width="33.37" height="16.69" transform="translate(487.45 320.12) scale(3.49)" xlink:href="#Berg-4"/><polygon class="cls-5" points="692.03 220.68 681.83 257.65 702.24 257.65 692.03 220.68"/><polygon class="cls-5" points="714.49 224.77 704.28 261.74 724.69 261.74 714.49 224.77"/><use width="17.72" height="32.09" transform="translate(692.03 229.08) scale(1.15)" xlink:href="#Tanne-8"/><polygon class="cls-5" points="681.55 237.24 675.14 260.44 687.95 260.44 681.55 237.24"/><use width="17.72" height="32.09" transform="translate(265.59 262.44) scale(2.81)" xlink:href="#Tanne-8"/><polygon class="cls-5" points="156.02 291.6 145.81 328.56 166.22 328.56 156.02 291.6"/><polygon class="cls-5" points="178.47 295.68 168.26 332.65 188.68 332.65 178.47 295.68"/><use width="17.72" height="32.09" transform="translate(156.02 299.99) scale(1.15)" xlink:href="#Tanne-8"/><polygon class="cls-5" points="145.53 308.15 139.12 331.35 151.93 331.35 145.53 308.15"/><polygon class="cls-6" points="319.65 444.46 395.84 375.37 372.8 359.42 294.85 375.37 319.65 444.46"/><path class="cls-21" d="M197.21,379.18s0-62.4,105.75-62.4,105.75,62.4,105.75,62.4Z"/><polygon class="cls-19" points="265.59 241.96 240.67 332.21 290.5 332.21 265.59 241.96"/><polygon class="cls-5" points="320.4 251.92 295.49 342.18 345.32 342.18 320.4 251.92"/><polygon class="cls-5" points="239.99 282.38 224.35 339.01 255.62 339.01 239.99 282.38"/><path class="cls-22" d="M30.73,494.54H267.48s57.81,0,57.81-57.81,57.81-57.81,57.81-57.81H931.64l-1,28.91H383.11s-28.91,3.61-28.91,28.91,0,86.72-86.72,86.72H30.73Z"/><use width="33.37" height="16.69" transform="translate(139.26 343.16) scale(3.49)" xlink:href="#Berg-4"/><path class="cls-9" d="M-.6,371.83v-14H61.09l25.62-.33h0c7.36-.24,8.16-7.35,8.16-10.4h14c0,17.89-13.18,24.38-22,24.38l-25.62.33Z"/><path class="cls-23" d="M.73,164c-3,.11-8.13,1.61-8.13,10.4,0,9.9,6.71,10.4,8.05,10.4H90A261.54,261.54,0,0,1,124.5,164Z"/><path class="cls-24" d="M355.87,180.61a1.77,1.77,0,0,1,3.54,0"/><path class="cls-24" d="M357.65,180.61a3.54,3.54,0,1,1,7.09,0"/><path class="cls-24" d="M370,180.61a1.77,1.77,0,0,1-3.54,0"/><path class="cls-24" d="M368.28,180.61a3.54,3.54,0,1,1-7.09,0"/><rect class="cls-3" x="370.05" y="178.84" width="5.31" height="3.54"/><path class="cls-2" d="M371.74,180.61h56v-4.4a4.46,4.46,0,0,0-4.46-4.46h-7.17L409.32,165a7.08,7.08,0,0,0-5-2.07h-20.1s-8.86,8.86-9.54,8.86h-2.94Z"/><polygon class="cls-25" points="412.57 171.5 405.73 164.66 396.62 164.66 396.62 171.5 412.57 171.5"/><polygon class="cls-25" points="378.91 171.5 385.74 164.66 394.85 164.66 394.85 171.5 378.91 171.5"/><circle class="cls-3" cx="383.78" cy="181.49" r="4.43"/><circle class="cls-2" cx="383.78" cy="181.49" r="1.17"/><circle class="cls-3" cx="409.91" cy="181.49" r="4.43"/><circle class="cls-2" cx="409.91" cy="181.49" r="1.17"/><polygon class="cls-19" points="115.87 177.77 100.91 231.97 130.84 231.97 115.87 177.77"/><polygon class="cls-5" points="148.79 183.76 133.83 237.95 163.75 237.95 148.79 183.76"/><use width="17.72" height="32.09" transform="translate(115.87 190.07) scale(1.69)" xlink:href="#Tanne-8"/><polygon class="cls-5" points="100.5 202.04 91.11 236.05 109.89 236.05 100.5 202.04"/><polygon class="cls-5" points="474.79 126.27 464.58 163.24 485 163.24 474.79 126.27"/><polygon class="cls-5" points="497.24 130.35 487.04 167.32 507.45 167.32 497.24 130.35"/><use width="17.72" height="32.09" transform="translate(474.79 134.66) scale(1.15)" xlink:href="#Tanne-8"/><polygon class="cls-5" points="464.3 142.82 457.9 166.02 470.71 166.02 464.3 142.82"/><path class="cls-24" d="M254.76,216.81a1.77,1.77,0,1,0-3.54,0"/><path class="cls-24" d="M253,216.81a3.54,3.54,0,1,0-7.09,0"/><path class="cls-24" d="M240.59,216.81a1.77,1.77,0,0,0,3.54,0"/><path class="cls-24" d="M242.36,216.81a3.54,3.54,0,0,0,7.09,0"/><rect class="cls-3" x="235.28" y="215.03" width="5.31" height="3.54" transform="translate(475.87 433.61) rotate(-180)"/><path class="cls-26" d="M238.9,216.81h-56v-4.4a4.46,4.46,0,0,1,4.46-4.46h7.17l6.79-6.79a7.08,7.08,0,0,1,5-2.07h20.1s8.86,8.86,9.54,8.86h2.94Z"/><polygon class="cls-25" points="198.07 207.69 204.91 200.86 214.02 200.86 214.02 207.69 198.07 207.69"/><polygon class="cls-25" points="231.73 207.69 224.9 200.86 215.79 200.86 215.79 207.69 231.73 207.69"/><circle class="cls-3" cx="226.86" cy="217.69" r="4.43"/><circle class="cls-2" cx="226.86" cy="217.69" r="1.17"/><circle class="cls-3" cx="200.73" cy="217.69" r="4.43"/><circle class="cls-2" cx="200.73" cy="217.69" r="1.17"/><use width="37.95" height="26.55" transform="translate(220.36 366.63) scale(1.46)" xlink:href="#Kuh-3"/><use width="37.95" height="26.55" transform="translate(281 354.75) scale(1.46)" xlink:href="#Kuh-3"/><path class="cls-24" d="M775.48,164.95a1.29,1.29,0,0,1,2.58,0"/><path class="cls-24" d="M776.77,164.95a2.58,2.58,0,0,1,5.17,0"/><path class="cls-24" d="M785.81,164.95a1.29,1.29,0,0,1-2.58,0"/><path class="cls-24" d="M784.52,164.95a2.58,2.58,0,1,1-5.17,0"/><rect class="cls-3" x="785.81" y="163.65" width="3.87" height="2.58"/><path class="cls-2" d="M787,164.95h40.82v-3.2a3.25,3.25,0,0,0-3.25-3.25h-5.23l-4.95-4.95a5.16,5.16,0,0,0-3.65-1.51H796.14s-6.46,6.46-7,6.46H787Z"/><polygon class="cls-25" points="816.8 158.31 811.82 153.32 805.18 153.32 805.18 158.31 816.8 158.31"/><polygon class="cls-25" points="792.27 158.31 797.25 153.32 803.89 153.32 803.89 158.31 792.27 158.31"/><circle class="cls-3" cx="795.81" cy="165.59" r="3.23"/><circle class="cls-2" cx="795.81" cy="165.59" r="0.85"/><circle class="cls-3" cx="814.86" cy="165.59" r="3.23"/><circle class="cls-2" cx="814.86" cy="165.59" r="0.85"/><polygon class="cls-27" points="60.14 335.77 49.93 372.74 70.34 372.74 60.14 335.77"/><polygon class="cls-27" points="82.59 339.86 72.39 376.83 92.8 376.83 82.59 339.86"/><use width="17.72" height="32.09" transform="translate(60.14 344.17) scale(1.15)" xlink:href="#Tanne-8"/><polygon class="cls-27" points="49.65 352.33 43.24 375.53 56.05 375.53 49.65 352.33"/><path class="cls-28" d="M-.24,402.63c31.8-10.69,72.61-17.38,122.45-17.38,247.64,0,247.64,165.16,247.64,165.16H-.24"/><rect class="cls-2" x="397.61" y="16.95" width="56.62" height="13.83" rx="4.66" ry="4.66"/><rect class="cls-2" x="419" y="10.14" width="56.62" height="13.83" rx="4.66" ry="4.66"/><rect class="cls-2" x="817.49" y="39.85" width="56.62" height="13.83" rx="4.66" ry="4.66"/><rect class="cls-2" x="838.88" y="33.05" width="56.62" height="13.83" rx="4.66" ry="4.66"/><g id="Neues_Symbol_2-2" data-name="Neues Symbol 2"><g id="Windrad-6" data-name="Windrad"><polygon class="cls-29" points="749.36 146.43 742.5 146.43 744.78 86.99 747.07 86.99 749.36 146.43"/><polygon class="cls-29" points="792.71 127.28 785.86 127.28 788.14 67.83 790.43 67.83 792.71 127.28"/><polygon class="cls-29" points="696.14 135.16 689.28 135.16 691.57 75.72 693.86 75.72 696.14 135.16"/></g></g></svg>