<svg id="Ebene_1" data-name="Ebene 1" xmlns="http://www.w3.org/2000/svg" viewBox="0 0 92 55.33"><defs><style>.cls-1{fill:#575756;}.cls-2,.cls-3{fill:none;stroke-linecap:round;stroke-linejoin:round;stroke-width:3.21px;}.cls-2{stroke:#e30613;}.cls-3{stroke:#41494c;}</style></defs><title>Zeichenfläche 7</title><path class="cls-1" d="M73.93,23.28A14.05,14.05,0,1,1,59.88,37.33,14.07,14.07,0,0,1,73.93,23.28m0-3.21A17.27,17.27,0,1,0,91.2,37.33,17.27,17.27,0,0,0,73.93,20.07Z"/><polyline class="cls-2" points="73.93 37.33 61.09 6.97 71.86 6.97 74.91 3.92"/><path class="cls-1" d="M17.76,24.06A14.05,14.05,0,1,1,3.7,38.12,14.07,14.07,0,0,1,17.76,24.06m0-3.21A17.27,17.27,0,1,0,35,38.12,17.27,17.27,0,0,0,17.76,20.85Z"/><path class="cls-2" d="M30.73,7,42.25,40.39a.27.27,0,0,0,.47.09l20.76-27.6-.06-.06H33.06L16.71,37.33l26,3.21"/><line class="cls-3" x1="37.09" y1="5.67" x2="24.66" y2="5.67"/></svg>