<svg id="Ebene_1" data-name="Ebene 1" xmlns="http://www.w3.org/2000/svg" viewBox="0 0 67.39 67.39"><defs><style>.cls-1{fill:#706f6f;}.cls-2{fill:none;}</style></defs><title>windrad</title><g id="Neues_Symbol_2-2" data-name="Neues Symbol 2"><circle class="cls-1" cx="33.96" cy="33.02" r="3.54" transform="translate(-2.16 2.38) rotate(-3.89)"/><path class="cls-1" d="M35.19,31.58,35.42.72S34.3-1.57,33.13,1.85,28.4,22.39,28.4,22.39L34,31.57Z"/><rect class="cls-2" x="0.22" y="0.07" width="66.83" height="67.17"/><circle class="cls-1" cx="33.89" cy="32.93" r="3.54" transform="translate(-12.6 24.5) rotate(-33.89)"/><path class="cls-1" d="M32,32.59,5.19,47.82s-1.42,2.12,2.12,1.42,20.15-6.17,20.15-6.17l5.13-9.48Z"/><circle class="cls-1" cx="33.96" cy="33.03" r="3.54" transform="translate(-10.65 48.99) rotate(-63.89)"/><path class="cls-1" d="M34.6,34.81,61.21,50.45s2.55.17.17-2.55S46,33.53,46,33.53l-10.78.29Z"/></g></svg>