<svg id="Ebene_1" data-name="Ebene 1" xmlns="http://www.w3.org/2000/svg" xmlns:xlink="http://www.w3.org/1999/xlink" viewBox="0 0 289.33 49.33"><defs><style>.cls-1{fill:#e73a21;}.cls-2{fill:#fff;}.cls-3{fill:#41494d;}.cls-4,.cls-6{fill:none;}.cls-4{stroke:#41494d;stroke-miterlimit:10;stroke-width:0.68px;}.cls-5{fill:#a7dbf4;}.cls-6{stroke:#0c0a16;stroke-linecap:round;stroke-linejoin:round;}</style><symbol id="Neues_Symbol_1-3" data-name="Neues Symbol 1" viewBox="0 0 191.24 26.12"><path class="cls-1" d="M21.07,0H191.24a0,0,0,0,1,0,0V21.07a0,0,0,0,1,0,0H0a0,0,0,0,1,0,0v0A21.07,21.07,0,0,1,21.07,0Z"/><rect class="cls-2" y="21.07" width="191.24" height="2.52"/><rect class="cls-3" y="23.6" width="191.24" height="2.52"/><rect class="cls-2" x="22.06" y="5.94" width="11.35" height="17.65"/><line class="cls-4" x1="27.73" y1="5.94" x2="27.73" y2="21.07"/><rect class="cls-5" x="35.61" y="5.94" width="11.35" height="7.57"/><rect class="cls-5" x="49.48" y="5.94" width="11.35" height="7.57"/><rect class="cls-2" x="63.67" y="5.94" width="11.35" height="17.65"/><line class="cls-4" x1="69.35" y1="5.94" x2="69.35" y2="21.07"/><rect class="cls-5" x="77.23" y="5.94" width="11.35" height="7.57"/><rect class="cls-5" x="91.1" y="5.94" width="11.35" height="7.57"/><rect class="cls-2" x="104.97" y="5.94" width="11.35" height="17.65"/><line class="cls-4" x1="110.64" y1="5.94" x2="110.64" y2="21.07"/><rect class="cls-5" x="118.52" y="5.94" width="11.35" height="7.57"/><rect class="cls-5" x="132.4" y="5.94" width="11.35" height="7.57"/><rect class="cls-2" x="146.58" y="5.94" width="11.35" height="17.65"/><line class="cls-4" x1="152.26" y1="5.94" x2="152.26" y2="21.07"/><rect class="cls-5" x="160.14" y="5.94" width="11.35" height="7.57"/><rect class="cls-5" x="174.01" y="5.94" width="11.35" height="7.57"/><path class="cls-5" d="M12.36,1.88a21.11,21.11,0,0,0-11,11.63h11Z"/></symbol></defs><title>zug</title><polyline class="cls-6" points="99.72 13 92.82 3.83 106.82 3.83"/><use id="Neues_Symbol_1-5" data-name="Neues Symbol 1" width="191.24" height="26.12" transform="translate(6.14 10.58) scale(1.48)" xlink:href="#Neues_Symbol_1-3"/></svg>