<svg xmlns="http://www.w3.org/2000/svg" viewBox="0 0 329.57 55.18"><defs><style>.cls-1{fill:#1d1d1b;}</style></defs><title>Zeichenfläche 11</title><g id="Ebene_3" data-name="Ebene 3"><path class="cls-1" d="M329.4 12.6H311V37h-6V12.5h-18.6v24.2h-6.2V12.6H268V.2h-6.2v12.4H237v24.2h-18.4v-6H231V12.5h-24.7V.6H200v12H175.5v18.2h12.3v6h-12.3V43H194V24.5h-12.4v-6H200V43h6.3V18.5h6.2v24.2H237v12.4h6.2V42.8h12.3V19h6.2v24h6.2V19h6v24h18.5V31h6.2v12h18.6V19h6v24h6.3V12.7zm-110.8 6h6v6h-6zm30.8 18.2h-6.2v-18h6.2zm49.3-12h-6.2v-6h6.2zM61.7 0h6v6.3h-6zM111 0h6v6.3h-6z"/><path class="cls-1" d="M166.5 12.5H148v24.3h-6V12.5h-18.7v24.3H117V12.5H105V.3h-6.2v12.2H74v18.3h12.4v6H67.8V12.6H49.2V37h-6V12.5H30.8V.2h-6.3V37H6.2V18.5h12.3v-6H0v30.3h30.8V18.5H37V43h18.5V18.5h6V43h31V24.5H80v-6h18.6V43h6.2V18.5h6.2V43h18.5V18.5h6.2v24.2h18.5V31h6.2v12h6V13zm-6.2 12.2h-6v-6h6z"/></g></svg>